<svg width="44" height="44" viewBox="0 0 44 44" fill="none" xmlns="http://www.w3.org/2000/svg">
<path d="M30.5234 29.1867C29.9896 28.6374 29.3452 28.3811 28.7193 28.5093C28.0933 28.6191 27.541 29.0952 27.2833 29.7178C27.2281 29.8459 27.2649 30.0107 27.3938 30.084C27.5226 30.1755 27.6699 30.1572 27.7804 30.0656C28.0565 29.8276 28.3143 29.7178 28.5352 29.7727C28.7193 29.8276 28.885 30.0107 28.977 30.2854C29.0507 30.5234 29.0138 30.8713 28.8666 31.091C28.8113 31.1643 28.7009 31.2924 28.572 31.3108C28.1117 31.3657 27.4122 30.7798 26.6758 30.1755C25.9578 29.5713 25.1293 28.8938 24.2088 28.5276C22.957 28.0149 19.5327 27.2642 17.121 29.0769C17.1026 29.0769 17.1026 29.0952 17.0842 29.0952C17.029 29.1318 15.6482 30.1938 15.3352 31.3108C14.8382 32.3545 14.7645 33.3432 15.1327 34.2221C14.8382 34.4602 14.6725 34.7531 14.6725 35.0827C14.6725 35.7968 15.4825 36.3644 16.5503 36.4377C16.4398 36.6025 16.3846 36.7856 16.3846 36.987C16.3846 37.7377 17.2867 38.342 18.4465 38.342C19.2934 38.342 19.993 38.0307 20.3243 37.5546C20.6557 38.0124 21.3553 38.342 22.2022 38.342C23.362 38.342 24.2641 37.756 24.2641 36.987C24.2641 36.7856 24.2088 36.6025 24.0984 36.4377C24.7795 36.4011 25.3687 36.1447 25.7 35.7602C25.7553 35.7602 25.8105 35.7236 25.8473 35.6869C26.0866 35.4855 26.5469 35.3574 26.9519 35.2658C27.0808 35.2475 27.1544 35.2475 27.1544 35.2475H27.1728C27.2465 35.2475 28.9402 35.0644 29.8975 33.9841C31.0942 32.6657 31.6096 30.322 30.5234 29.1867ZM16.3662 33.4165C16.403 33.1235 16.5503 32.8488 16.7896 32.5925C16.6423 32.7756 16.5503 32.9953 16.5503 33.2334C16.5503 33.4348 16.6055 33.6179 16.716 33.7827C16.6055 33.7827 16.4951 33.801 16.3662 33.801C16.3662 33.6545 16.3478 33.5263 16.3662 33.4165ZM15.3168 35.1193C15.3168 34.9545 15.4641 34.7714 15.7034 34.6433C15.8875 34.5517 16.1085 34.4785 16.3478 34.4235C16.4767 34.4052 16.6239 34.3869 16.7528 34.3869C17.5997 34.3869 18.1888 34.7714 18.1888 35.1193C18.1888 35.3024 18.0047 35.4672 17.9126 35.5405C17.6365 35.7419 17.2131 35.8517 16.7528 35.8517C15.906 35.8334 15.3168 35.4672 15.3168 35.1193ZM20.4164 32.5376C20.0666 32.1347 19.4038 31.8601 18.6306 31.8601C18.3729 31.8601 18.1151 31.8967 17.8758 31.9516C18.6306 31.6953 19.5879 31.622 20.5821 31.7685C20.8766 31.8051 21.1896 31.8784 21.4842 31.9516C21.0239 32.0615 20.6557 32.2629 20.4164 32.5376ZM22.2022 32.5009C22.3494 32.5009 22.5335 32.5192 22.6808 32.5376C23.2515 32.6291 23.7486 32.9221 23.7486 33.215V33.2334C23.7486 33.4714 23.4172 33.7094 22.9938 33.8559C22.7729 33.9291 22.4967 33.9658 22.2206 33.9658C21.3737 33.9658 20.7662 33.5813 20.7662 33.2334C20.7662 32.8855 21.3553 32.5009 22.2022 32.5009ZM18.6306 32.5009C19.4591 32.5009 20.0666 32.8855 20.0666 33.2334C20.0666 33.4165 19.9009 33.6179 19.6064 33.746C19.5327 33.7827 19.4407 33.8193 19.367 33.8376C19.1461 33.9108 18.8884 33.9475 18.6306 33.9475C17.8022 33.9475 17.1946 33.5629 17.1946 33.215C17.1762 32.8855 17.7838 32.5009 18.6306 32.5009ZM18.4465 37.7377C17.5997 37.7377 17.0105 37.2983 17.0105 36.9687C17.0105 36.6208 17.6181 36.1996 18.4465 36.1996H18.4649L18.4833 36.2546L18.5018 36.2729C18.9252 36.2729 19.3118 36.4011 19.5879 36.5842C19.6984 36.6574 19.8825 36.8222 19.8825 37.0236C19.8825 37.3532 19.2934 37.7377 18.4465 37.7377ZM20.3243 35.8334C19.4775 35.8334 18.8884 35.4489 18.8884 35.101C18.8884 34.863 19.1645 34.6249 19.5695 34.4968C19.6432 34.4785 19.7352 34.4418 19.8273 34.4235C19.993 34.3869 20.1586 34.3686 20.3243 34.3686C21.1712 34.3686 21.7603 34.7531 21.7603 35.101C21.7603 35.4672 21.1712 35.8334 20.3243 35.8334ZM22.2022 37.7377C21.3553 37.7377 20.7662 37.3532 20.7662 37.0053C20.7662 36.8954 20.8214 36.7856 20.9503 36.6757C20.9503 36.6757 20.9503 36.6757 20.9687 36.6574C21.2264 36.4194 21.7051 36.2729 22.2206 36.2729C22.4783 36.2729 22.736 36.3095 22.957 36.3827C23.3804 36.5109 23.6565 36.7673 23.6565 37.0053C23.6381 37.3532 23.049 37.7377 22.2022 37.7377ZM25.2766 35.3207C25.1109 35.5771 24.6139 35.8517 23.8959 35.8517C23.6565 35.8517 23.4356 35.8151 23.2147 35.7602C22.7545 35.632 22.4599 35.3757 22.4599 35.1193C22.4599 34.8813 22.736 34.6433 23.1595 34.4968C23.3804 34.4235 23.6381 34.3869 23.8959 34.3869C24.0616 34.3869 24.2272 34.4052 24.3745 34.4418C24.9268 34.5517 25.3318 34.8264 25.3318 35.1193C25.3318 35.1743 25.3134 35.2475 25.2766 35.3207ZM24.0984 33.7644C24.0984 33.746 24.1168 33.746 24.1168 33.7277C24.1168 33.746 24.1352 33.746 24.1352 33.7644C24.1168 33.7644 24.1168 33.7644 24.0984 33.7644ZM26.6205 34.7165C26.5653 34.7165 26.5101 34.7531 26.4733 34.7897C26.3444 34.8264 26.1971 34.863 26.0867 34.9179C26.0314 34.7165 25.8105 34.3137 25.5159 33.6545C25.0557 32.6291 24.0431 31.2558 21.8155 30.5783C18.8515 29.6811 17.2867 30.1206 16.5319 30.5417C16.5871 30.4868 16.6239 30.4319 16.6792 30.3769C16.716 30.3586 16.7528 30.3403 16.7896 30.3037C17.0105 30.0473 17.2499 29.8276 17.5076 29.6262C18.5386 29.26 20.1034 29.0952 22.3863 29.791C25.4239 30.7065 26.326 32.9038 26.5837 33.801C26.6758 34.1123 26.731 34.4418 26.731 34.7348C26.6574 34.6982 26.639 34.7165 26.6205 34.7165ZM28.664 34.2038C28.3695 34.3686 28.0565 34.4602 27.7988 34.5334C27.7804 34.5334 27.7804 34.5334 27.762 34.5334C27.9461 33.0503 27.1176 31.6037 26.7494 31.0727C27.2649 31.4756 27.7435 31.8051 28.2038 31.915C28.4799 32.3911 28.7745 33.1601 28.664 34.2038Z" fill="white"/>
<path d="M21.7981 7.3791C25.0198 7.34248 27.5604 5.73116 27.5604 3.6987C27.5604 1.64794 25.0198 0.0366208 21.7981 0C18.5579 0.0366208 16.0358 1.64794 16.0358 3.68039C16.0542 5.73116 18.5579 7.34248 21.7981 7.3791ZM21.7981 1.4099C23.4734 1.4099 24.6516 2.05077 24.6516 2.91136C24.6516 3.5156 23.9889 4.06491 22.9395 4.30295C21.9638 4.61423 22.332 4.94381 21.8165 5.2734L21.7981 5.25509C21.2826 4.88888 21.6692 4.59591 20.6751 4.28464C19.6441 4.0466 18.9629 3.5156 18.9629 2.91136C18.9629 2.05077 20.178 1.4099 21.7981 1.4099Z" fill="white"/>
<path d="M44 27.8134V10.6932C44 10.4918 43.8711 10.3087 43.7054 10.2171C43.5397 10.1256 43.3557 10.1256 43.19 10.2171L41.4226 11.2242V5.20007C41.4226 4.99866 41.2753 4.81555 41.0912 4.724C40.9071 4.63245 40.6862 4.63245 40.5021 4.74231L32.0704 10.0523C31.9967 10.034 31.9047 10.0523 31.831 10.0706C30.3766 10.5284 28.9959 10.7481 27.7808 10.7481C25.7373 10.7481 24.3934 10.1256 23.5466 9.48471C22.6997 8.84385 22.3499 8.25791 22.3315 8.20298C22.2395 8.01988 22.0554 7.98326 21.8713 7.98326C21.6687 7.98326 21.4846 8.03819 21.411 8.20298C21.3558 8.31284 20.0303 10.7848 15.9617 10.7848C14.7282 10.7848 13.3659 10.5284 11.9115 10.0706C11.8747 10.0523 11.8378 10.0523 11.801 10.034L3.31403 4.74231C3.14834 4.63245 3.0747 4.63245 2.8906 4.724C2.7065 4.81555 2.74332 4.99866 2.74332 5.20007V11.2242L0.828687 10.2171C0.662998 10.1256 0.442078 10.1256 0.276389 10.2171C0.110699 10.327 0.000239613 10.5101 0.000239613 10.6932V27.7951C0.000239613 28.0515 -0.0918102 32.1347 3.33244 35.6137C6.38849 38.7265 11.1198 40.3012 17.4713 40.3012C17.5265 40.3012 17.5633 40.3011 17.6001 40.2828C20.0118 40.9786 21.3558 41.5646 21.3558 43.4872C21.3558 43.7801 21.5767 43.9999 21.8713 43.9999C22.1658 43.9999 22.3867 43.7618 22.3867 43.4872C22.3867 41.5463 23.7491 40.9603 26.1976 40.2645C26.2528 40.2828 26.3265 40.3012 26.4001 40.3012C32.7515 40.3012 37.5381 38.7265 40.5942 35.6137C44 32.153 44 28.0515 44 27.8134ZM40.2444 12.1214V18.7132L34.2243 21.8626C34.2243 21.8626 33.3038 19.4273 36.1205 14.7581C37.8143 13.6961 40.2444 12.1214 40.2444 12.1214ZM34.9791 26.605C34.9423 26.6416 34.9239 26.6599 34.8871 26.6965C34.8687 26.6599 34.8687 26.6416 34.8503 26.605C34.9055 26.605 34.9423 26.605 34.9791 26.605ZM22.4604 9.74106C23.3809 10.6566 24.9825 11.8101 27.8913 11.8101C29.1248 11.8101 30.3951 11.6087 31.8126 11.1876C33.3406 13.6046 34.1323 14.6849 34.5557 15.1609C33.8009 16.3511 31.7574 20.2146 33.2854 25.2683C32.4938 24.5908 31.021 24.426 29.2352 24.3528C28.9959 23.2541 28.9959 22.2654 29.0695 21.8992H31.7206C32.0151 21.8992 32.0151 21.2583 32.0151 20.8738V18.4385C32.0151 16.5708 30.9658 16.461 30.9658 16.461C30.9658 16.461 30.303 16.3694 29.9716 15.4905C29.6587 14.6116 29.1248 13.9158 28.3331 13.8243C27.5599 13.7327 26.308 14.3553 25.3323 14.8863C24.7432 15.2159 24.688 15.6553 24.6143 16.2779C24.4118 17.816 23.9332 17.7427 23.9332 17.7427C23.6386 17.7427 23.5281 18.054 23.5281 18.4385V20.8738C23.5281 21.2583 23.5281 21.8992 23.8043 21.8992H26.2896C26.3633 22.2654 26.4553 23.2358 26.1792 24.3711C24.4118 24.4626 23.1415 24.664 22.4051 25.3965V9.74106H22.4604ZM27.0076 21.8992H28.4068C28.3331 22.2654 28.3331 23.2908 28.5541 24.3345C28.5357 24.3345 28.5172 24.2978 28.4988 24.2978L26.8603 24.2246C27.0629 23.2175 27.0629 22.2654 27.0076 21.8992ZM11.9483 11.1876C13.3659 11.6087 14.7834 11.8101 15.9985 11.8101C18.4838 11.8101 20.2512 10.9679 21.1717 10.1439V25.1035C20.4353 24.6274 19.2202 24.4077 17.8395 24.3162C17.6922 23.5654 17.6554 21.8076 17.8579 21.2949C18.9809 21.0386 19.0177 19.9033 19.0729 18.9329C19.1098 18.2188 18.8336 15.7103 18.8336 15.7103C18.9441 15.637 19.4411 15.5088 19.5148 15.4722C19.6621 15.4539 19.8093 15.3807 19.8646 15.2342C19.9014 15.0511 19.975 14.7764 19.9014 14.6849C19.8093 14.575 19.2754 14.5201 19.165 14.337C18.9073 14.0623 18.6495 13.8792 18.3918 13.9158C18.0604 13.9341 17.7106 13.9341 17.5081 14.3004C17.1951 14.0806 16.8822 14.3736 16.5324 14.282C16.5324 14.282 16.4403 15.4356 17.6922 15.3257L17.8211 18.4019C17.8211 18.4019 17.9131 19.0244 17.0294 18.8596C16.3667 18.7315 14.7834 18.1272 14.0286 18.347C13.4579 18.5117 12.832 18.8047 12.4822 19.9949C12.114 21.1851 12.7215 20.7822 12.7215 20.7822L13.3474 20.3611C13.3474 20.3611 13.7893 21.4048 13.2738 21.9907C12.8688 22.4668 13.0345 22.8147 13.0345 22.8147C13.0345 22.8147 13.2186 23.895 13.1818 24.426C12.0219 24.5359 11.083 24.7739 10.4755 25.2317C11.9667 20.2146 9.94161 16.3877 9.1868 15.2159C9.59182 14.6849 10.4203 13.6046 11.9483 11.1876ZM13.8445 22.7781C14.5809 22.5217 14.8387 21.1301 14.8387 21.1301C14.8387 21.1301 15.9248 21.8442 16.7533 21.478C16.7533 21.8076 16.6428 22.3569 16.6428 22.3569C16.6428 22.3569 16.514 22.7598 16.7533 23.2175C16.8822 23.4373 16.9558 23.9683 16.9926 24.2978C16.606 24.2795 16.1826 24.2795 15.7592 24.2795C15.078 24.2795 14.4152 24.2978 13.7893 24.3345C13.8261 23.7119 13.8629 23.4006 13.8445 22.7781ZM3.57177 12.1214C3.57177 12.1214 6.00188 13.6961 7.6956 14.7581C10.5123 19.4456 9.59182 21.8626 9.59182 21.8626L3.57177 18.7132V12.1214ZM7.78764 33.215C3.9952 31.0727 1.32576 29.5346 1.32576 29.5346L1.17848 22.6865L8.43199 26.7881C8.43199 26.8064 6.81192 29.9924 7.78764 33.215ZM8.85542 26.6233C8.85542 26.6233 8.83701 26.605 8.85542 26.6233C8.83701 26.605 8.85542 26.605 8.85542 26.6233C8.85542 26.605 8.85542 26.6233 8.85542 26.6233ZM30.9842 37.1151C29.6218 38.1588 27.9465 38.6715 26.3265 39.1293C24.4855 39.642 22.6997 40.1547 21.8528 41.4913C21.006 40.1547 19.2202 39.6603 17.3792 39.1476C15.7592 38.6898 14.0838 38.1588 12.7215 37.1151C9.22362 34.4418 7.93492 32.3361 9.83115 26.843H33.8745C35.7892 32.3361 34.5005 34.4418 30.9842 37.1151ZM41.9749 29.5346C41.9749 29.5346 39.2871 31.0544 35.513 33.215C36.4887 29.9924 34.8687 26.7881 34.8687 26.7881L42.1222 22.6865L41.9749 29.5346Z" fill="white"/>
</svg>
