<svg width="111" height="35" viewBox="0 0 111 35" fill="none" xmlns="http://www.w3.org/2000/svg">
<path d="M14.012 11.204C12.788 9.548 10.52 8.756 8.612 8.756C4.292 8.756 0.368 12.176 0.368 17.576C0.368 22.976 4.292 26.432 8.612 26.432C10.484 26.432 12.788 25.604 14.012 23.948V24.416C14.012 28.772 12.104 30.464 9.08 30.464C7.28 30.464 5.552 29.384 4.832 27.836L0.908 29.528C2.348 32.66 5.48 34.676 9.08 34.676C15.02 34.676 18.728 31.256 18.728 23.912V9.188H14.012V11.204ZM9.512 22.04C7.136 22.04 5.156 20.024 5.156 17.576C5.156 15.092 7.136 13.148 9.512 13.148C11.708 13.148 13.868 14.984 13.868 17.576C13.868 20.132 11.816 22.04 9.512 22.04ZM30.7613 26.432C35.5493 26.432 39.7973 22.904 39.7973 17.612C39.7973 12.284 35.5493 8.756 30.7613 8.756C25.9733 8.756 21.7253 12.284 21.7253 17.612C21.7253 22.904 25.9733 26.432 30.7613 26.432ZM30.7613 22.04C28.4213 22.04 26.5133 20.204 26.5133 17.612C26.5133 14.984 28.4213 13.148 30.7613 13.148C33.1013 13.148 35.0093 14.984 35.0093 17.612C35.0093 20.204 33.1013 22.04 30.7613 22.04ZM52.9075 8.756C50.9995 8.756 48.6955 9.512 47.5075 11.204V0.0439994H42.7915V26H47.5075V23.912C48.6955 25.64 50.9995 26.432 52.9075 26.432C57.2275 26.432 61.1515 22.976 61.1515 17.576C61.1515 12.176 57.2275 8.756 52.9075 8.756ZM52.0075 22.04C49.7035 22.04 47.6515 20.132 47.6515 17.576C47.6515 14.984 49.8115 13.148 52.0075 13.148C54.3835 13.148 56.3275 15.092 56.3275 17.576C56.3275 20.024 54.3835 22.04 52.0075 22.04ZM66.349 26.324C68.005 26.324 69.409 25.1 69.409 23.408C69.409 21.752 68.005 20.528 66.349 20.528C64.729 20.528 63.361 21.752 63.361 23.408C63.361 25.1 64.729 26.324 66.349 26.324ZM82.8972 8.756C80.9892 8.756 78.6852 9.548 77.4972 11.24V9.188H72.7812V34.244H77.4972V23.912C78.6852 25.64 80.9892 26.432 82.8972 26.432C87.2172 26.432 91.1412 23.012 91.1412 17.576C91.1412 12.212 87.2172 8.756 82.8972 8.756ZM81.9972 22.04C79.8012 22.04 77.6412 20.168 77.6412 17.612C77.6412 15.056 79.6932 13.148 81.9972 13.148C84.3732 13.148 86.3172 15.128 86.3172 17.612C86.3172 20.096 84.3732 22.04 81.9972 22.04ZM110.842 17.324C110.842 12.176 106.918 8.756 102.094 8.756C97.3064 8.756 93.1664 12.176 93.1664 17.612C93.1664 22.796 96.9464 26.432 102.13 26.432C105.082 26.432 107.998 25.172 109.582 23.048L106.846 20.276C105.802 21.464 104.146 22.256 102.418 22.256C100.186 22.256 98.6024 21.104 98.0984 19.124H110.734C110.806 18.368 110.842 17.792 110.842 17.324ZM98.0984 16.064C98.6024 13.796 100.258 12.824 102.202 12.824C104.326 12.824 105.946 14.084 106.09 16.064H98.0984Z" fill="white"/>
</svg>
