<?xml version="1.0" encoding="utf-8"?>
<!-- Generator: Adobe Illustrator 24.1.1, SVG Export Plug-In . SVG Version: 6.00 Build 0)  -->
<svg version="1.1" id="Capa_1" xmlns="http://www.w3.org/2000/svg" xmlns:xlink="http://www.w3.org/1999/xlink" x="0px" y="0px" viewBox="0 0 1967.2 629.2" style="enable-background:new 0 0 1967.2 629.2;" xml:space="preserve">
	<style type="text/css">
	.st0{fill:#CF000B;}
	.st1{fill:#FFFFFF;}
</style>
	<rect x="3.4" y="-0.3" class="st0" width="1967.6" height="628.6" />
	<g>
		<path class="st1" d="M843.9,240.3c-13.2-17.9-37.7-26.5-58.4-26.5c-46.7,0-89.2,37-89.2,95.5s42.4,95.9,89.2,95.9
		c20.2,0,45.2-9,58.4-26.9v5.1c0,47.2-20.7,65.5-53.4,65.5c-19.5,0-38.2-11.6-46-28.4L702,438.8c15.6,33.9,49.5,55.7,88.5,55.7
		c64.3,0,104.4-37,104.4-116.5V218.6h-51V240.3z M795.3,357.7c-25.7,0-47.1-21.8-47.1-48.3c0-26.9,21.4-47.9,47.1-47.9
		c23.7,0,47.1,19.8,47.1,47.9C842.4,337.1,820.2,357.8,795.3,357.7z" />
		<path class="st1" d="M1032.9,213.9c-51.8,0-97.8,38.2-97.8,95.9c0,57.3,46,95.5,97.8,95.5c51.8,0,97.8-38.2,97.8-95.5
		C1130.7,252.1,1084.7,213.9,1032.9,213.9z M1032.9,357.7c-25.3,0-46-19.8-46-47.9c0-28.4,20.7-48.3,46-48.3c25.3,0,46,19.9,46,48.3
		C1078.9,337.9,1058.2,357.8,1032.9,357.7z" />
		<path class="st1" d="M1280.4,214c-20.6,0-45.5,8.2-58.4,26.5V119.7h-51v280.9h51V378c12.8,18.7,37.7,27.3,58.4,27.3
		c46.7,0,89.2-37.5,89.2-95.9S1327.1,214,1280.4,214z M1270.5,357.7c-24.9,0-47.1-20.6-47.1-48.3c0-28,23.3-47.9,47.1-47.9
		c25.8,0,46.8,21,46.8,47.9C1317.3,335.9,1296.3,357.8,1270.5,357.7z" />
		<path class="st1" d="M1433.4,341.4c-17.5,0-32.3,13.3-32.3,31.2c0,18.3,14.8,31.5,32.3,31.6c17.9,0,33.1-13.3,33.1-31.6
		C1466.5,354.6,1451.3,341.4,1433.4,341.4z" />
		<path class="st1" d="M1620.5,213.9c-20.6,0-45.5,8.6-58.4,26.9v-22.2h-51v271.2h51V378c12.8,18.7,37.7,27.3,58.4,27.3
		c46.7,0,89.2-37.1,89.2-95.9C1709.7,251.4,1667.3,214,1620.5,213.9z M1610.7,357.7c-23.7,0-47.1-20.2-47.1-47.9
		c0-27.6,22.2-48.3,47.1-48.3c25.8,0,46.8,21.4,46.8,48.3S1636.5,357.8,1610.7,357.7z" />
		<path class="st1" d="M1930.6,306.6c0-55.7-42.5-92.7-94.7-92.7c-51.8,0-96.6,37.1-96.6,95.9c0,56.1,40.9,95.5,97,95.5
		c32,0,63.6-13.6,80.7-36.6l-29.6-30c-11.3,12.8-29.2,21.4-47.9,21.4c-24.2,0-41.3-12.5-46.8-33.9h136.8
		C1930.3,318,1930.7,311.8,1930.6,306.6z M1792.7,293.1c5.4-24.6,23.4-35.1,44.4-35.1c23,0,40.5,13.7,42.1,35.1H1792.7z" />
		<path class="st1" d="M316.3,493.1l0.2-1c0.1-0.4,0.2-0.7,0.4-1.1c-4.4-3.7-9.5-2.5-12-1.2c0.3,0.8,0.5,1.7,0.6,2.5
		c0.9,6-1.6,11.4-6.7,14.9c2.6,4.5,7.5,6.6,11.5,6.4h0.1c5.7-0.4,8.5-2.8,10.3-5.6C318.6,506.1,314.8,501.4,316.3,493.1z" />
		<path class="st1" d="M257,476c4-0.7,6.8-2.3,8.6-4.7c1.8-2.4,3-5.5,2.8-9.1c-0.1-2.2-0.8-4.5-2.1-6.9c0,0,2.4,2.4,3.6,5.2
		c0.4,0.9,1.2,3,1.3,5.6c0.4,0.3,0.8,0.5,1.2,0.8h0.1c2.6,1.4,5.6,1.9,8.7,1.3c2.8-0.6,5.3-2.1,7-4.2c0,0,0-0.1-0.1-0.1H288
		c-1.6-2.2-2.4-4.9-2.6-8v-0.2c-0.1-1.4-0.3-4.3,1.5-8.1c-0.8,0-1.6,0.1-2.3,0.1c-6.4,0.5-13.5,2.1-20.3,4.3l-0.1,0.2l-0.2-0.1
		c-8.4,2.7-16.4,6.2-22.3,9.5c-0.1,1.4,0,2.7,0.3,4.1c1.3,5.9,6.3,10.1,12.3,10.6l0.8,0.1c0.6-0.1,1.2-0.1,1.7-0.2L257,476z" />
		<path class="st1" d="M355.6,472.3c-4.6,0.5-8,2.2-9.9,4.8c-1.8,2.5-2.4,5.5-2.5,7.5c0,1.7,0.3,5.8,1.9,9.4
		c-2.3-2.6-3.7-7.1-3.7-7.1c-0.5-2.3-2.2-6.7,2.2-12.6c2.3-3,4.8-4.8,9-5.6c-1.6-5.7-6.7-9.6-12.4-9.9c1.2,6.4-1,13.3-6.5,17.3
		c-2.6,1.9-5.6,2.7-8.6,2.9c-3.6,0.2-7.2-0.9-10.3-3.2c0,0-4.5-3.2-4.9-9.1c-1.7,1.6-3.8,2.6-6.5,3.2c-1.6,0.1-4.1,0.3-5.7,0
		c-2.6-0.6-4.8-1.6-6.6-2.9c-2.2,2.7-5.4,4.5-9,5.3c-0.8,0.2-1.7,0.3-2.5,0.3c-3.1,0.2-6.1-0.5-8.8-2c-0.4,1.1-0.9,2.1-1.7,3.2
		c-2.6,3.5-6.7,5.7-12.3,6.4c-0.1,1.4-0.1,3,0,3.9c0.4,2.6,1.5,5.7,5,8.3c1.7,1.3,4.2,2.2,6.8,2.3c0.2,0,0.4,0,0.6,0l0.3-0.3
		c0.1,0,0.1,0,0.2,0c0.4,0,0.8,0,1.2-0.1c0.4-0.1,0.8-0.1,1.2-0.2c1.3-0.3,2.6-0.9,3.7-1.5c0,0,0,0,0,0.1c-1.2,0.7-2.4,1.3-3.7,1.5
		c1.4-0.3,2.7-0.8,3.8-1.5c0,0,0,0,0-0.1c0.5-0.3,0.8-0.6,1.2-0.9l0,0c1-0.8,1.8-1.7,2.4-2.7c2.1-3.2,2-6.6,1.7-8.6l0.1-0.1
		c-0.2-0.9-0.4-1.4-0.4-1.4s-0.6-1.9-1.6-3.3c0.4,0.3,1.8,1.7,2.9,3.6l0,0c0.2,0.3,0.4,0.7,0.6,1.1c0.1-0.8,0-1.5,0-1.8l0.1-0.1
		c0,0,0.1,0.8,0,2.1c1.3,2.9,2,6.6-0.4,10.7c-1.3,2-3,3.6-5.1,4.7c0.5,3.1,2,7.2,6.9,9.5c3.2,1.5,8,1.2,11.7-0.8l0.5-0.3
		c5.4-3.5,6.2-8.3,6-10.9c-0.2-4.8-2.9-9.7-8.5-12.3V481c3.9,0.4,7,2.5,9,5.3c3.2-1.8,10.4-3,16.2,1.1c2.2-2.6,5.7-4.6,11-4.9
		c1.7,0,5.2,0.2,7.8,1.9c-1.3-0.5-4.3-0.5-4.3-0.5c-10.7,0.4-12.8,7.9-13.2,9.4c-1.1,6.3,1.4,10.2,2.9,11.9l0.5,0.4
		c3.3,2.8,7.6,3.9,11.9,3c5.1-1.2,9.2-5.2,10.3-10.4l0.4-1.8l1.5,1c3.1,2,6.8,2.6,10.4,1.8c7.3-1.7,11.9-9,10.3-16.3
		C367.3,476.8,361.8,472.4,355.6,472.3z" />
		<path class="st1" d="M272.1,494.2L272.1,494.2c-0.1,0-0.1,0-0.2,0C272,494.2,272,494.2,272.1,494.2z" />
		<path class="st1" d="M313.6,471.9c1.3,1.1,2.8,1.9,4.3,2.4c0,0,7,3.2,13.5-1.3c3.5-2.4,6.3-8.4,4.5-15c-0.2-0.1-0.8-0.4-0.8-0.4
		c-8.4-4.3-23.7-9.9-41.1-10.4h-0.7c-0.6,0-1.2,0-1.8,0c-2.4,3.9-2.2,6.7-2.1,8v0.3c0.4,6.9,5.2,10.4,9.6,11.4s10.7,0,14.1-6.1
		l0.3-0.4l0,0c-0.8,2.3-1.6,4.1-2.7,5.4l-0.1,0.1c-0.2,0.2-0.3,0.4-0.5,0.6c0.1,0.5,0.2,0.9,0.4,1.3l0,0
		C311.1,469.8,312.3,470.7,313.6,471.9z" />
		<path class="st1" d="M271.9,494.2c-0.3,0.1-0.7,0.1-1,0.2C271.2,494.4,271.6,494.3,271.9,494.2z" />
		<path class="st1" d="M437.3,399.1c-1.8-5.1-6.8-12.5-14.5-14.5c-5.7-4.3-12.2-3.7-15.6-2.4c-6.6-0.1-10.6,4-12.4,7.2
		c-0.7,0.5-1.5,1.3-2.3,2.3c-1.2,1.8-2.4,5-1,9.8c0.1,6.2,3.5,9.7,6.9,11c3.9,1.8,8.1-0.1,8.9-0.5l3.9-2l-2.2-3.8
		c0,0-1.2-2.1-1.5-4.4c0-0.4,0-1,0.1-1.7c0.5-0.5,1.1-1,1.7-1.2l0.1-0.1c1.3-0.5,3.5,0,5,0.5c0.5,1.7,1.5,4,3.2,5.7
		c-1,2.2-1.8,5-2,8c-3,1-4.6,3.6-5.5,5.5c-0.9,0.2-1.6,0.6-2.2,0.9c-1.3,0.3-2.3,0.4-7-0.1h-0.3l-0.6-0.1c-3.2-0.3-7.4-2.3-8.8-3.1
		L391,416c-0.3-0.2-27.7-15.9-44.2-25.3l-0.3-0.2c-5.7-3-19.1-9.9-36.5-9.2c-12.8,0.3-27.1,5.9-36.4,14.2l-3.1,2.8
		c-5.7,1.1-10,2.2-10.3,2.2l-2.9,0.7l-0.9,11c-5.2,2-9.1,4.2-9.4,4.3l-1.8,1c-0.1,0-0.1,0.1-0.2,0.1l0,0v-0.1c0,0-0.1,0-0.1,0.1
		l-1.3,0.7l0,0l-0.1,2.4c0,0.8-0.1,3.3,0.1,6.1l4.5-1.8l1.1-0.5l2.5-0.9l0,0l2.7-0.8c14.1-4.4,33.9-6.2,50.2-0.7
		c13.4,4.5,20,10.3,25.9,15.3c1.1,1,2.2,1.9,3.3,2.8l0,0l0,0c-6.6-4.3-18.4-11.3-30.6-14.8s-29.3-3.7-45.5,1.3c0,0-2.4,0.8-5.8,2.1
		c0,0,0,0,0-0.1c-0.2,0.1-0.3,0.1-0.4,0.2c-0.5,0.2-1,0.4-1.5,0.6c-3.9,1.5-8.6,3.5-11.7,5.3l0.1,2c0,0.4,0.6,9,2.3,16.7l0.3,1.2
		c0,0,0-0.1,0.1-0.1c0.1,0.7,0.2,1.1,0.2,1.1c0.3-0.1,0.6-0.2,0.9-0.4l0,0c3.6-1.7,17.5-8,27.4-10.2c5.5-1.2,9.9-2.1,14.3-2.7
		c0.1,0,0.1,0,0.2,0c0.6-0.1,1.2-0.1,1.7-0.1c0,0-0.1,0-0.1-0.1h0.1c0,0,0.1,0,0.1,0.1c0.6,0,1.3-0.1,1.9-0.1s1.2,0,1.8,0
		c-0.1-0.1-0.1-0.1-0.2-0.2l0,0l0.1,0.1c0.6,0,1.1,0,1.6,0l0,0c0.7,0,1.3,0,1.9,0c0,0,0.1,0,0.1-0.1c0.1,0,0.2,0,0.4,0
		c0.4,0.1,1,0.1,1.5,0.2l0,0c1.2,0,2.4,0.1,3.5,0.2c0.4,0,0.7,0.1,1.1,0.1c12.9,1.2,24.8,5,31.7,7.6c0.6,0.2,1.2,0.5,1.8,0.7
		c1,0.4,2.3,0.9,2.5,1c1.2,0.5,1.9,0.8,1.9,0.8l2.5-4.5c9.9,4,36.5,14.1,50.8,13.8c2,0.3,4.9,0.6,8.3,0.5c4.7-0.1,10.2-0.8,15.4-2.8
		c14.3-2.9,22.5-16.7,24.4-22.7c4.7-5.7,5.6-16.2,3.6-23.2C442.2,409.3,441.3,403.2,437.3,399.1z M405,443.6
		c-1.2,8.2-4.4,11.4-4.4,11.4s1.6-6.6-0.8-18.4c-1-4.9-3.6-9.8-3.6-9.8l7.8,1.3C404,428,406.5,432.6,405,443.6z M428.6,417.1
		c-2.9-1.3-5.1-1.6-5.1-1.6s0-2.3,0.5-4.3c2.8,0.3,6,2,7.6,3.8c1.7,1.9,3.4,4.5,4.4,7.2C434.3,420.7,431.9,418.6,428.6,417.1z" />
		<path class="st1" d="M246.7,96.2c3.9,6.4,8.3,10.4,13.4,12c0.6,1,1.2,1.9,1.9,2.8c-2.7,0-5.6,0.5-8.6,1.3
		c5.2,4.4,10.6,7.4,16.9,7.7c0.7,0.6,1.4,1.2,2.2,1.8c-2.1,0.2-4.3,0.5-6.6,1c6.2,5.6,13.2,8.1,18.9,7c1.2,0.6,2.4,1.2,3.7,1.8
		c-1.2,0.6-2.5,1.3-3.7,2c5.4,2,10.4,2.8,14.6,2.3c8.4,2.9,15.9,4.9,15.9,4.9s16.3,2.3,19.6,9.4c5.1-7.8,11-8.9,13-9.4
		c8-1.8,14.1-3.2,19.8-5c3.8,0.2,8-0.6,12.6-2.4c-0.9-0.6-1.8-1.2-2.6-1.7c1.4-0.7,2.8-1.4,4.2-2.3c6.8,0.3,12.4-3.1,18.5-7.3
		c-2.4-0.5-4.7-0.8-7-1c0.5-0.5,1.1-1,1.6-1.5c6.3-0.6,11.6-4.1,16.5-8.9c-2.8-0.8-5.6-1.1-8.3-0.9c0.4-0.7,0.9-1.4,1.3-2.1
		c5.9-1.7,10.8-5.9,13.3-12c-3.5,0.4-6.6,0.9-9.1,1.5c0.3-1.1,0.5-2.2,0.6-3.3c3.9-3.2,6.2-7.6,6.5-12.8c-2,1.1-4.2,2-6.4,3
		c-0.2-1.8-0.6-3.5-1-5.2c1.7-3.3,1.8-7.3,0.3-12.5c-1.6,1.1-3,2.1-4.3,3.2c-0.9-1.5-1.8-2.9-2.9-4.3c1.1-3.6-0.2-8.2-3.9-14.3
		c-2.2,1.7-3.7,3.6-4.8,5.4c-1.3-1.1-2.7-2.1-4.2-3.2c-0.5-4.5-4.2-8.8-11.5-13.4c-0.5,2.4-0.8,4.6-0.7,6.5
		c-1.4-0.6-2.9-1.3-4.4-1.8c-2-4.8-6.9-8.3-13.7-9.5c0.2,2.1,0.5,3.9,1,5.5c-1.9-0.5-3.9-0.9-5.9-1.2c-3.6-3.8-9.8-5.7-17.2-5
		c0.6,1.2,1.2,2.3,1.9,3.3c-2.1-0.1-4.2-0.2-6.3-0.1c-1.7,0-3.3,0.1-5,0.1c0.6-1,1.2-2.2,1.7-3.4c-7.5-0.2-13.2,1.5-16.8,5.1
		c-2,0.3-3.9,0.7-5.8,1.2c0.5-1.8,0.6-3.7,0.4-5.6c-7.3,2.7-11.5,5.6-13.3,9.6c-1.5,0.6-3,1.2-4.4,1.8c-0.1-1.7-0.3-3.6-0.6-5.8
		c-6.7,3.8-10.6,8.1-11.5,12.4c-1.7,1.1-3.3,2.3-4.8,3.5c-1-1.5-2.3-3.1-4.1-4.6c-3.5,5-4.9,9.5-4.3,13c-0.9,1.2-1.8,2.4-2.6,3.6
		c-1.4-1-3.1-2-4.9-2.9c-1.3,4.8-1.2,8.7,0.6,11.9c-0.6,1.8-1.1,3.6-1.4,5.5c-1.7-0.6-3.5-1.2-5.6-1.7c0.8,4.4,2.7,7.7,5.2,10.5
		c0.1,1.6,0.4,3.2,0.7,4.8C252.1,95.9,249.5,96.1,246.7,96.2z M332.5,65.9c23.6-0.1,39.5,13.5,39.6,23.2c0.1,8-9,13.3-25.5,17.7
		c-7.8,2.1-10.1,5.5-12.9,8.4c-1.1-1.8-4.7-5.2-12.2-6.9c-17.8-3.9-29.5-10.7-29.5-18.8C292,79.8,308.9,66,332.5,65.9z" />
		<path class="st1" d="M555.2,90l-119.1,69.7l-0.1-0.1l-5.3,3c-0.2,0.1-16.9,9.3-36.8,12.5c-30.4,4.9-53.4-14.3-53.6-14.5l-5.5-4.9
		l-5.3,5.1c-0.7,0.7-17.7,16.3-51.1,15c-13.1-0.5-26.6-6.3-34.1-10.1L114.2,90.5L114,192.2l-44-24.9l0.7,235.4v0.4
		c1.2,22.4,2.6,41.1,8.3,60.4c6.5,22.2,18.2,41.9,35.8,60.2c12,12.2,25.7,21.6,40.8,27.9c13,5.4,27.4,8.7,42.9,9.7
		c3.9,0.3,7.7,0.4,11.5,0.4c23.6,0,45.8-4.6,64.1-8.3c8.5-1.7,16.3-3.3,22.4-4c21-0.4,28.6,9,33.8,11c1.2,0.7,2.5,1.1,4.1,1.1
		c0.4,0,0.7-0.1,1,0c1.5-0.2,2.7-0.7,3.7-1.4l0.1,0.1c5.4-3.7,9.6-6.3,13.8-8c17.7-7,33.3-3.1,53.1,1.9c3.4,0.9,6.9,1.7,10.5,2.6
		l0.4,0.1c13.7,2.3,29,4.5,44.7,4.5c8.8,0,17.8-0.7,26.8-2.2c25.5-4.9,47.9-17.6,68.5-38.9c17.4-18,28.2-35.2,34.1-53.9
		c5.3-17.1,6.2-34.1,7.3-53.8l0.2-3.7l0.5-241.1l-44.3,25.2L555.2,90z M539.5,163.3l-0.1,38.5l-37.6,22.6l-14.1-13.9l-7.7-8.1
		L539.5,163.3z M383.9,192c4,0,8.2-0.3,12.6-1c15.8-2.5,29.5-8.2,36.7-11.6l57.5,56.7c-7.8,8.6-21.1,26.1-26.8,49.6
		c-4.9,1.1-9.3,3.9-9.9,4.3l-4.2,2.8l3.3,3.8c0.1,0.2,3.2,3.7,8.2,5.9c-0.2,3.1-0.3,6.3-0.1,9.5c0.4,12.8,2.7,26.1,5.7,38.5
		c-12.7-2.4-31.6-5.1-54.9-5.2c-0.3,0-0.7,0-1,0v-30.7h0.1c0-0.1,0-0.3-0.1-0.4c1-5.2,6.3-5.9,7.5-6.1l-0.4-4.4l0.3,4.4l-0.7-8.8
		c-1.8,0.1-4.3,0.7-6.7,2v-6.5c1.4-5.8,13.3-6.7,13.4-6.7l-0.4-8.9c-0.5,0.1-7.1,0.5-13,3.4v-10.3l0,0l0,0v-0.4c0.3-0.5,0.6-1,1-1.7
		c4.4,0.7,12.5,0.9,19.6-5.6c6.4-5.6,7.6-14,7.6-14.4l0.6-4.4l-4.4-0.6c-0.5-0.1-11-1.3-19.6,6.5c-3.5,3-6.5,6.7-8.8,9.9
		c-2.5-3.9-6.5-8.3-13.1-11.9c-7.1-3.9-14.1-3.7-14.4-3.7l-5,0.2l0.8,4.9c0.1,0.6,2.4,14.8,13.9,18.7c5.3,1.8,9.7,1.2,12.3,0.4
		c0.3,0.9,0.5,1.6,0.6,2v10.4c-5.9-3-12.5-3.4-13-3.4l-0.4,8.9c0,0,3.5,0.2,7.1,1.4c3.7,1.3,5.8,3.1,6.3,5.3v6.5
		c-2.4-1.2-4.9-1.8-6.7-1.9l-0.7,8.8c0.3,0,6.5,0.6,7.4,6.3v30.9c-27.9,0.6-48,4.3-59.1,6.9v-47.9c1.5,0.4,3.2,0.6,5.2,0.7
		c0.1,0,0.2,0,0.3,0c6.7,0,13.8-5.3,14.5-5.9l4-3.1l-3.6-3.6c-0.3-0.2-6.7-6.6-16.1-6.6c-1.5,0-3,0.2-4.3,0.6v-105
		C352.6,186.5,366.8,192,383.9,192z M277.9,191.9c1.5,0.1,3.1,0.1,4.6,0.1c19.8,0,34.6-5.1,44.4-10.2v170.6h-0.2
		c-5.8-1.4-18.6-4.1-36.1-5.7c-0.3-5-1.4-18-1.4-18s1.1-10.6,1.4-12.2c2.5-7.5,3.9-13.1,4.5-14.2c1.5-0.8,6-3.6,8.5-6.7
		c2.4-3,3.4-3.9,4.2-8.8l1.9-16.4l-2.2-41.9l13-1.7l2.5-3.6l0.2-4l-17.3-12.3c0,0-7.4,2.5-9.1,3c-3.5-1.8-9.8-2.8-16.3,2.2
		c0.7,2.4,2.9,4.7,5.6,6.2c3.4,2,9.6,1.9,9.6,1.9s0.1,1.6,0.1,3.1c0.6,18,0.3,37.9,0.3,37.9l-17.8,1.2l-45.6-2l-16.1,15.2l-2,5.5
		c-1.8,5-1.6,10.6,0.6,15.5l7.9-8.6l3.2,15.2L222,324l3,8.3c0,0,3,7.5,5.8,14.9c-14.1,1.5-24.1,3.6-29.4,4.9
		c3.9-15,4.9-23.2,5.1-25.2c0.7-4,5.9-36.6-4.5-60.3c-4.8-10.9-10.5-19.3-15.5-25.4c-1.6-2.8-3.2-5.2-4.6-7l3.5-3.8l50.3-51
		C244.1,183.8,260.9,191.2,277.9,191.9z M282.6,346.1c-0.8-0.1-1.6-0.1-2.4-0.1c-0.5-7.6-1.6-24.9-1.6-24.9l0.8-2.1l1.7-9.6
		l-0.3,10.5v3.5L282.6,346.1z M272.9,345.6c-2.5-0.1-5-0.1-7.5-0.1c-4.5,0-8.8,0.1-13,0.2c-2-6.5-3.4-12.5-5.3-18.7
		c-0.6-1.8,0.7-10.2,0.7-10.2l8.4-13.9l6.8,2.5l6.3-1.2l-0.6,18.4L272.9,345.6z M244.6,345.9c0,0.1,0,0.1,0,0.1
		c-2.3,0.1-4.5,0.3-6.6,0.5c-2.8-8.1-6.6-22.5-6.6-22.5l7.6-20.2l-0.9,22.5C238.1,326.3,243.1,339.2,244.6,345.9z M129.6,164.6
		l61,37.4l-21.1,21.5l-40-22.3L129.6,164.6z M162.5,427.8l-61.7-36.3c-6.5-5-14.2-13.7-14.5-26.7c0-2.5-0.1-4.1-0.2-5l-0.2-75
		c10.5,5.8,83.6,46.6,100.9,59.4c-3,12.4-8.4,30.9-18,55.8C165.3,409.2,163.2,418.5,162.5,427.8z M472.7,491.5
		c-21.4,18.4-42.4,29.4-86.2,31.2c-28.4,1.1-43.1,10.6-51.8,19.2c-7.1-7.2-21.9-18.3-52.9-19.2c-30.4-0.9-50.4-9-61.9-15.6
		c-12.1-7-17.5-13.9-17.8-14.3l-0.3-0.6l-0.5-0.5c-0.1-0.1-9.4-9.3-16.1-24.6c-8.8-20-9.2-40.7-1.3-61.4
		c5.5-14.5,9.7-26.8,12.9-37.2H472c6.3,20,13.2,35.1,14.3,37.5c0.6,1.7,5.5,15.1,6.4,31.8C493.9,461,487.2,479,472.7,491.5z
		 M583.4,284.6l-0.2,80.7c-0.4,14.7-9.3,22.8-15.1,26.6l-3.1,1.8c-1.2,0.6-2,0.9-2,0.9l0.5-0.1l-55.9,32.3
		c-2.1-15.4-6.4-26.4-6.6-27l-0.2-0.5c-0.1-0.4-12.2-26.1-19.1-55.7L583.4,284.6z" />
		<path class="st1" d="M349.2,265.3l-4,1.6l1.4,4.1c0.1,0.4,3.8,10.2,15.4,13.6c2,0.6,4.1,0.8,6.1,0.8c7.5,0,14.2-3.1,14.7-3.3
		l4.6-2.2l-3.1-4.7c-2.1-3.3-5.6-8.8-15.3-11.8C361,260.9,350.4,264.8,349.2,265.3z" />
		<path class="st1" d="M444.4,265.2c-7.7,2-14.1,10.5-14.8,11.5l-3,4.1l4.4,2.4c0.3,0.2,5.9,3.2,13.2,3.2c2.3,0,4.7-0.2,7.1-1
		c9.2-2.7,13.6-12,13.8-12.4l1.9-4l-4.5-2.1C459.2,265.3,453.6,262.7,444.4,265.2z" />
		<path class="st1" d="M406.4,255.6l3.2-2.8c0.3-0.2,7.3-6.2,7.8-18.1c0.4-10-7.2-16.6-7.5-16.9l-3.3-2.8l-2.9,3.2
		c-0.1,0.2-0.3,0.3-0.4,0.5c-2.3,2.4-6.6,7-6.9,16.3c-0.3,9.5,6.8,17.2,7.1,17.5L406.4,255.6z" />
		<path class="st1" d="M445.1,259.2c0.4,0.1,2.2,0.6,4.8,0.6c2.7,0,6.4-0.5,10-2.6c6.1-3.6,7.5-10.6,7.7-11.4l0.8-4.4l-4.7-0.9
		c-2.4-0.5-7-1.4-13.1,2c-0.9,0.5-5.4,3.3-8.5,10.7l-1.9,4.7L445.1,259.2z" />
		<path class="st1" d="M355.1,257.2c2.1,1,4.3,1.3,6.2,1.3c3.9,0,7.1-1.4,7.6-1.5l4-1.9l-2-4.3c-1.1-2.3-3-6.5-9.3-9.5
		c-0.9-0.4-5.8-2.5-13.6-0.7l-4.9,1.1l1.8,4.7C345.2,247.1,347.9,254,355.1,257.2z" />
		<path class="st1" d="M426.6,241.9c1.4,0,5.9-0.3,9.7-3.8c3.9-3.4,3.9-8.7,3.9-9.3l-0.1-4.4l-4.7,0.1c-1.6,0.1-5.1,0.1-8.9,3.4
		c-3.2,2.7-4.2,7.7-4.4,8.7l-0.9,5l5,0.3C426.2,241.9,426.4,241.9,426.6,241.9z" />
		<path class="st1" d="M386.4,240.5l4.4,0.6l0.7-4.6c0.2-1.5,0.6-4.7-1.8-8.6c-2-3.2-6.3-4.9-7.2-5.2l-4.8-1.7l-1.1,4.9
		c-0.1,0.5-1.1,5.3,1.8,9.7C381.1,239.7,385.9,240.4,386.4,240.5z" />
		<path class="st1" d="M370.5,298.5c-6.9,3.9-8.6,11.9-8.8,12.8l-0.9,4.4l4.4,0.8c0.9,0.2,2.6,0.5,4.8,0.5c2.8,0,6.5-0.5,10.4-2.5
		c6.9-3.6,9.6-11.7,9.9-12.6l1.4-4.4l-4.4-1.2C387,296.2,378.4,293.9,370.5,298.5z" />
		<path class="st1" d="M425.2,297.4l-3.4,2.5l2.3,3.5c0.5,0.8,5.1,7.4,11.9,9.3c1.6,0.4,3.2,0.6,4.8,0.6c5.3,0,10.3-1.8,11.1-2.2
		l4.5-1.7l-2.1-4.3c-0.2-0.4-4.1-8.4-12.6-10.6C432.4,292.1,425.5,297.2,425.2,297.4z" />
	</g>
</svg>