<?xml version="1.0" encoding="utf-8"?>
<!-- Generator: Adobe Illustrator 24.1.1, SVG Export Plug-In . SVG Version: 6.00 Build 0)  -->
<svg version="1.1" id="Capa_1" xmlns="http://www.w3.org/2000/svg" xmlns:xlink="http://www.w3.org/1999/xlink" x="0px" y="0px"
	 viewBox="0 0 1967.2 629.2" style="enable-background:new 0 0 1967.2 629.2;" xml:space="preserve">
<style type="text/css">
	.st0{fill:none;stroke:#D0D2D4;stroke-width:22;stroke-miterlimit:10;}
	.st1{fill:#FFFFFF;}
	.st2{clip-path:url(#SVGID_2_);}
	.st3{clip-path:url(#SVGID_4_);}
	.st4{fill:none;stroke:#000000;stroke-width:16;stroke-miterlimit:10;}
	.st5{fill:none;stroke:#000000;stroke-width:4;stroke-miterlimit:10;}
	.st6{fill:none;stroke:#000000;stroke-width:10;stroke-miterlimit:10;}
</style>
<g>
	<g>
		<g>
			<g>
				<path d="M286,74.2c-8.6,8.7-17.1,11.2-25.1,7.6C264.7,75,274.3,72,286,74.2z"/>
			</g>
			<g>
				<path d="M368.7,46.8c10.7,6.6,13.7,12.6,10.2,19.7C369.5,63.9,366.4,58,368.7,46.8z"/>
			</g>
			<g>
				<path d="M254.9,105c-6.9-3.7-12.6-8.4-14.1-16.9c13,3.4,18.5,8.2,18.7,16.6c-1.6,0-3.1,0-4.7,0L254.9,105z"/>
			</g>
			<g>
				<path d="M388.9,105.6c0.7-12.2,10.8-13.4,18.4-17.6C406.8,97.2,399.8,104.1,388.9,105.6z"/>
			</g>
			<g>
				<path d="M362.5,73.9c10-2.8,20.1,0.1,24.8,7C379.8,85,369.7,82.1,362.5,73.9z"/>
			</g>
			<g>
				<path d="M254.3,106.1c2.7,2.9,5.3,5.8,8.5,9.3c-10.5,2.2-18.1-1.7-24.6-12.3c4.8-0.2,9.3-0.7,16.2,3.2
					C254.5,106.3,254.3,106.1,254.3,106.1z"/>
			</g>
			<g>
				<path d="M387.3,115.2c1-7.5,7.2-11,22-12.6C405.8,111.5,397,116.5,387.3,115.2z"/>
			</g>
			<g>
				<path d="M279.2,47.4c2,11.6-0.4,16.3-9.9,19.9C265.1,60.6,268.5,53.5,279.2,47.4z"/>
			</g>
			<g>
				<path d="M346.4,67.5c10.2-5.6,18.3-5.9,25.2-1.2C366.9,72.5,358.3,72.9,346.4,67.5z"/>
			</g>
			<g>
				<path d="M275.8,67c8.9-6,17-3,25.6,0.1C293.4,73.1,282.9,73.1,275.8,67z"/>
			</g>
			<g>
				<path d="M400.2,73.3c2.8,9.5,0.2,15.3-8.5,19.4C386.6,87,389.3,80.7,400.2,73.3z"/>
			</g>
			<g>
				<path d="M327.4,63.4c8.2-7.3,17.8-8.9,24.5-4.5C346.7,65.4,340.3,66.6,327.4,63.4z"/>
			</g>
			<g>
				<path d="M295.7,58.7c9.3-4.7,16.9-0.7,24.7,3.8C312.1,67.5,301,65.9,295.7,58.7z"/>
			</g>
			<g>
				<path d="M256.4,91.5c-9.1-4.2-11.8-9.9-9.3-19.1C257.1,77.2,260.7,84.4,256.4,91.5z"/>
			</g>
			<g>
				<path d="M403.2,117.6c-6.6,6.5-13.9,10.7-23.6,8.4C381.7,118.7,393.1,114.6,403.2,117.6z"/>
			</g>
			<g>
				<path d="M259.9,78.4c-6.9-3.6-7.3-10.7-1-19.7C266.4,65.2,266.8,71.8,259.9,78.4z"/>
			</g>
			<g>
				<path d="M389.3,57.9c5.9,9.8,5.7,15.6-0.8,19.9C381.1,71.7,381.4,64.1,389.3,57.9z"/>
			</g>
			<g>
				<path d="M270,125.7c-10.1,3.2-17.7-0.3-25.1-6.5C256.1,116.1,265.2,118.4,270,125.7z"/>
			</g>
			<g>
				<path d="M283.2,58.7c-0.7-8.2,3.3-12.8,14.4-16.8C298.9,51,291.4,59.2,283.2,58.7z"/>
			</g>
			<g>
				<path d="M371.3,107.9c8.4,7.8,9.1,13.1,3,19.1C366.1,123.3,365.2,118,371.3,107.9z"/>
			</g>
			<g>
				<path d="M364.4,58.3c-9.6-1.2-13.6-5.8-14.6-16.3C359.6,43.7,365.6,50.2,364.4,58.3z"/>
			</g>
			<g>
				<path d="M348,52.2c-9.9,1.4-16.1-2-20.4-10.9C338.2,40.3,346.3,44.6,348,52.2z"/>
			</g>
			<g>
				<path d="M299.7,52.5c1.9-7.7,9.3-11.6,20.3-11.3C316.5,49.9,309.7,53.8,299.7,52.5z"/>
			</g>
			<g>
				<path d="M277.1,108.8c5.4,7.2,5.5,13.4,0.5,17.3c-2.4,1.9-4.1,1.6-5.8-0.9C268.6,120.2,270.3,114.7,277.1,108.8z"/>
			</g>
			<g>
				<path d="M388.2,97.3c-9.1,2.1-13.5-1.1-16-11.4C382,84.7,388.8,89.5,388.2,97.3z"/>
			</g>
			<g>
				<path d="M275.7,86.2c-1.2,9.7-5.9,13.4-15.3,12.1C258.9,90.7,264.2,86.5,275.7,86.2z"/>
			</g>
			<g>
				<path d="M382.9,114.4c-8.9-3.4-10.8-7.9-7.6-17C385.2,102.3,387.8,108,382.9,114.4z"/>
			</g>
			<g>
				<path d="M273,97.8c3.3,9.9,1,14.7-7.7,17.1C260.9,108.4,262.9,103.7,273,97.8z"/>
			</g>
			<g>
				<path d="M283.7,116.3c10.5,5.9,12.7,10.7,8.2,17.2C283.5,130.9,280.9,125.7,283.7,116.3z"/>
			</g>
			<g>
				<path d="M356.7,133.3c-4.1-7-2.2-11.2,7.7-17.2C368.5,123.3,365.5,130.1,356.7,133.3z"/>
			</g>
			<g>
				<path d="M366.5,134.9c7.6-7.9,15.8-7.7,25.5-5.8C384,134.6,376.8,138.6,366.5,134.9z"/>
			</g>
			<g>
				<path d="M257.5,129.7c8.9-1.8,17.1-2.1,24,4.9C275,139.1,265.6,137.1,257.5,129.7z"/>
			</g>
			<g>
				<path d="M276.5,140.5c7.9-4.5,15.6-7.7,24.5-3.1C296.4,143.5,287.3,144.6,276.5,140.5z"/>
			</g>
			<g>
				<path d="M297.4,144.5c9.2-6.8,16.2-8,23.8-4.2C317.1,146.2,308.8,147.8,297.4,144.5z"/>
			</g>
			<g>
				<path d="M315.6,137.6c-9.2,0.8-14.5-2.4-18.9-11.1C306.6,125.6,314.5,130.1,315.6,137.6z"/>
			</g>
			<g>
				<path d="M351.7,127.3c-4.6,9.2-9.9,12.4-18.7,11.7C333,132.1,339.1,128.1,351.7,127.3z"/>
			</g>
			<g>
				<path d="M371.9,140.3c-10.1,3.9-18.2,3.1-24.1-2.3C354.3,133.1,362.9,133.9,371.9,140.3z"/>
			</g>
			<g>
				<path d="M326.9,140.2c9.3-4.1,16.8-1.4,24.2,3.8C342,147.9,332.6,146.5,326.9,140.2z"/>
			</g>
			<g>
				<path d="M314.9,53c6.4-4,10.4-3.8,18.7,0.4C328.3,58.4,320.4,58.4,314.9,53z"/>
			</g>
			<path d="M326.5,157.1c-3.3-7.1-19.6-9.4-19.6-9.4s-19.5-5.2-30.6-11c-18.4-9.6-30.4-24.4-30.5-40.8
				c-0.2-28.6,33.8-51.2,77.4-51.4s77.8,21.9,78,50.5c0.1,15.8-9.6,30.2-25.6,40.1c-11.6,7.1-20.3,9.1-36.1,12.6
				C337.5,148.2,331.7,149.3,326.5,157.1z M324,72.8c-23.6,0.1-40.5,13.9-40.5,23.6c0,8.1,11.7,14.9,29.5,18.8
				c7.5,1.7,11.1,5.1,12.2,6.9c2.8-2.9,5.1-6.3,12.9-8.4c16.5-4.4,25.6-9.7,25.5-17.7C363.5,86.3,347.6,72.7,324,72.8z"/>
			<g>
				<path d="M288.3,216.8c1.7-0.5,9.1-3,9.1-3l17.3,12.3l-0.2,4l-2.5,3.6l-13,1.7l2.2,41.9l-1.9,16.4c-0.8,4.9-1.8,5.8-4.2,8.8
					c-2.5,3.1-7,5.9-8.5,6.7c-0.6,1.1-2,6.7-4.5,14.2c-0.3,1.6-1.4,12.2-1.4,12.2s1.5,17.9,1.5,19.8c0,2.9-7.3-1.5-8-1.1l-2-24.1
					v-3.5l0.3-10.5l-1.7,9.6l-0.8,2.1c0,0,1.6,25.1,1.9,28.2c-3.3,1.2-6.6,1.2-6.6,1.2l-5.1-27.8l0.6-18.4l-6.3,1.2l-6.8-2.5
					l-8.4,13.9c0,0-1.3,8.4-0.7,10.2c2.3,7.3,3.8,14.4,6.5,22.3c-3.7,1-8,1.1-9-3.4c-1.5-6.7-6.5-19.6-6.5-19.6l0.9-22.5l-7.6,20.2
					c0,0,4.5,16.9,7.3,24.4c-2.5,0.1-5.4,1.8-6.7,1.9c-3.1-8.2-7-18-7-18l-2.8-8.3l4.3-20.8l-3.2-15.2l-7.9,8.6l0,0
					c-2.2-4.9-2.4-10.5-0.6-15.5l2-5.5l16.1-15.2l45.6,2l17.8-1.2c0,0,0.3-19.9-0.3-37.9c0-1.5-0.1-3.1-0.1-3.1s-6.2,0.1-9.6-1.9
					c-2.7-1.5-4.9-3.8-5.6-6.2C278.5,214,284.8,215,288.3,216.8z"/>
				<rect x="483.7" y="299.1" transform="matrix(0.8635 -0.5044 0.5044 0.8635 -82.2375 309.8838)" width="95.2" height="15.5"/>
				<path d="M453.3,568.1c-15.7,0-31-2.2-44.7-4.5l-0.4-0.1c-3.6-0.9-7.1-1.7-10.5-2.6c-19.8-5-35.4-8.9-53.1-1.9
					c-4.2,1.7-8.4,4.3-13.8,8l-8.7-12.9c6.3-4.3,11.3-7.4,16.8-9.6c22.3-8.8,41-4.2,62.6,1.3c3.3,0.8,6.6,1.7,10.1,2.5
					c19.9,3.5,43.3,6.4,65.5,2.2c22.3-4.3,42-15.5,60.3-34.4c33.7-35.1,35.1-60,37.1-97.8l0.2-3.5L575,201l-35.6,20.3l-7.7-13.5
					l58.9-33.5l-0.5,241.1l-0.2,3.7c-1.1,19.7-2,36.7-7.3,53.8c-5.9,18.7-16.7,35.9-34.1,53.9c-20.6,21.3-43,34-68.5,38.9
					C471.1,567.5,462.1,568.1,453.3,568.1z"/>
				<path d="M541.8,518.2c-48.3,48.7-111.7,47-146.8,38.3c-5.6-1.4-15.3-4-21.6-6.6c-20.6-8.6-29.6-2.5-34.6,0.4
					c-0.4,0.3-12.3,8.1-12,7.6c3.3-4.5,14.3-15.8,22.3-18.1c36.1-10.5,122-5.9,139-61.8c12.5-35.2,2.6-39.3,2.6-39.3l85.4-49.4
					l1.5,27.8C577.6,446.1,582,477.6,541.8,518.2z"/>
				<g>
					<g>
						<path class="st0" d="M534,216.6"/>
					</g>
				</g>
				<g>
					<g>
						<path class="st0" d="M464,344.9"/>
					</g>
				</g>
				<g>
					<g>
						<path class="st0" d="M484.3,405"/>
					</g>
				</g>
				<polygon points="584.2,234.1 469.2,292.1 471.4,351.7 583.5,286.6 				"/>
				<rect x="318.5" y="174.5" width="16.1" height="199.8"/>
				<rect x="181.2" y="359.3" width="289.1" height="16.1"/>
				<g>
					<g>
						<polygon class="st1" points="463.4,206.9 491.1,237.1 539.2,207.5 541.1,160.6 						"/>
					</g>
				</g>
				<polygon points="536.7,110.4 433.6,170.3 470.7,209.9 535.2,167.5 				"/>
				<path d="M490.2,251.3l-74.7-77.8l131.2-76.7l-0.3,120.6L490.2,251.3z M440.4,177l52.5,54.6l38.1-22.9l0.2-84.7L440.4,177z"/>
				<g>
					<rect x="113.3" y="253.8" transform="matrix(0.5044 -0.8635 0.8635 0.5044 -200.2792 253.8732)" width="15.5" height="95.2"/>
					<path d="M201.5,568.6c-3.8,0-7.6-0.1-11.5-0.4c-15.5-1-29.9-4.3-42.9-9.7c-15.1-6.3-28.8-15.7-40.8-27.9l0,0
						c-17.6-18.3-29.3-38-35.8-60.2c-5.7-19.3-7.1-38-8.3-60.4v-0.4l-0.7-235.4l54.5,30.9l-7.7,13.5l-31.2-17.7l0.6,208.4
						c2.1,37.7,4.1,73.3,39.8,110.5c19.7,20.2,43.8,31,73.5,33c25.8,1.7,51.1-3.5,71.4-7.7c14.2-2.9,25.4-5.2,33.9-4.7l-0.9,15.5
						c-6.5-0.4-17.3,1.9-29.8,4.4C247.3,564,225.2,568.6,201.5,568.6z"/>
					<path d="M109.7,517.8c36.8,37.2,79.2,43.3,115.4,39.5c12.4-1.3,32.3,3.8,41.1,2.1c41.6-10.4,50.7,8.1,57.4,8.3
						c0,0-5.1-24-37.3-33.6c-61.6-2.9-109.2-24.4-122.1-61.4c-12.5-35.2,0.6-31.7,0.6-31.7l-88.5-52l-1.1,7.4
						C75.1,425.2,69.5,477.2,109.7,517.8z"/>
					<rect x="123.1" y="178.2" transform="matrix(0.4865 -0.8737 0.8737 0.4865 -125.6243 225.6856)" width="12.2" height="83"/>
					<g>
						<g>
							<path class="st0" d="M118.3,211.2"/>
						</g>
					</g>
					<path d="M72.9,184.6l88.5,53.1c0,0,54.8,52,18.6,114.7C165.6,340.6,76.2,291,76.2,291L72.9,184.6z"/>
					<g>
						<g>
							<polygon class="st1" points="189,201.5 161.2,231.7 113.1,202.1 111.3,155.2 							"/>
						</g>
					</g>
					<polygon points="117.8,111.9 214.3,177.8 184.8,210.6 109.3,164.1 					"/>
					<path d="M185.9,348.6l-35.3-22.2c-38.6-24.1-44.4-54.8-45.2-78.9v-0.3l0.3-149.8l130.9,75.7l-63.2,68
						c4.8,6.2,11.2,17.6,15.8,37.5c7.4,32-0.1,58.8-0.5,59.9L185.9,348.6z M121,247.2c0.7,21.4,5.7,46,37.9,66l0,0l16.9,10.7
						c1.3-9.6,2.1-25-1.7-41.7c-5.9-25.8-14.6-33.6-15.6-34.5l-8.7-4.7l7.3-7l54.9-59.1l-90.8-52.5L121,247.2z M158.4,247.7
						L158.4,247.7L158.4,247.7z"/>
				</g>
				<path d="M326.1,568.3c-4.2,0-6.7-3-8.6-5.2c-4.2-5-14.2-16.7-44.6-17.5c-62.3-1.7-88-31.2-91.7-35.9
					c-2.2-2.3-11.7-12.5-18.9-28.6c-10.6-23.9-11.3-49.6-1.9-74.3c19.3-50.6,21.7-74.7,21.7-74.9v-0.4l0.1-0.4
					c0.1-0.3,5.5-31.1-3.3-51.3c-9.3-21.3-22.6-31-22.7-31.1l-7.7-5.5l6.6-6.7l69.3-70.6l5.5,3.4c0.2,0.1,20.6,12.5,40.1,13.3
					c33.4,1.3,50.4-14.3,51.1-15l5.3-5.1l5.5,4.9c0.2,0.2,23.2,19.4,53.6,14.5c19.9-3.2,36.6-12.4,36.8-12.5l5.3-3l4.3,4.2
					l73.4,72.4l-6.4,5.7c-0.3,0.3-31.5,28.7-30.1,69.5c1.4,40.2,23.5,87.5,23.7,88l0.2,0.5c0.3,0.7,6.5,16.6,7.6,37.1
					c1.5,28-7.3,51-25.6,66.7c-14,12-26.5,19.8-40.7,25.2c-15.3,5.8-32.9,9-55.4,9.9c-30,1.2-39.9,12.8-44.1,17.8
					c-1.8,2.1-3.8,4.5-7.4,4.9C326.8,568.3,326.4,568.3,326.1,568.3z M193.7,499.7c0.3,0.4,5.7,7.3,17.8,14.3
					c11.5,6.6,31.5,14.7,61.9,15.6c31,0.9,45.8,12,52.9,19.2c8.7-8.6,23.4-18.1,51.8-19.2c43.8-1.8,64.8-12.8,86.2-31.2
					c14.5-12.5,21.2-30.5,20-53.7c-0.9-16.7-5.8-30.1-6.4-31.8c-2.1-4.4-23.7-51.7-25.1-94c-1.3-36.8,19-64.3,29.5-75.9l-57.5-56.7
					c-7.2,3.4-20.9,9.1-36.7,11.6c-4.4,0.7-8.6,1-12.6,1c-22.6,0-40.2-9.6-48.6-15.2c-8.3,5.8-26.1,15.2-52.8,15.2
					c-1.5,0-3.1,0-4.6-0.1c-17-0.7-33.8-8.1-42.2-12.5L172.7,242c5.9,5.9,14.4,16.3,21.1,31.6c10.4,23.7,5.2,56.3,4.5,60.3
					c-0.4,3.6-3.5,28.7-22.6,78.8c-7.9,20.7-7.5,41.4,1.3,61.4c6.7,15.3,16,24.5,16.1,24.6l0.5,0.5L193.7,499.7z"/>
				<path d="M188.5,360.2c0,0,24.8-8,68.5-7.8c38.5,0.2,64.8,7.8,64.8,7.8H188.5z"/>
				<path d="M532.2,311L467,352.2c0,0-19.5-63.4,21.8-99.2c36.3-31.5,90-63.8,90-63.8l2.2,83.7L532.2,311z"/>
				<g>
					<g>
						<defs>
							<path id="SVGID_1_" d="M469.2,362.9c0,0-17.7-49.2-3.3-88.5s13.3-27.1,13.3-27.1l-49.8-40.9l-104.5,8.8l1.7,155.2l122.8,0.7
								l16,1.1L469.2,362.9z"/>
						</defs>
						<clipPath id="SVGID_2_">
							<use xlink:href="#SVGID_1_"  style="overflow:visible;"/>
						</clipPath>
						<g class="st2">
							<g>
								<path d="M362.6,270.6"/>
							</g>
						</g>
					</g>
					<g>
						<defs>
							<path id="SVGID_3_" d="M469.2,362.9c0,0-17.7-49.2-3.3-88.5s13.3-27.1,13.3-27.1l-49.8-40.9l-104.5,8.8l1.7,155.2l122.8,0.7
								l16,1.1L469.2,362.9z"/>
						</defs>
						<clipPath id="SVGID_4_">
							<use xlink:href="#SVGID_3_"  style="overflow:visible;"/>
						</clipPath>
						<g class="st3">
							<rect x="393.7" y="278.2" width="8.9" height="76.4"/>
							<path d="M393.7,302.2c-0.3-2.5-2.5-4.4-6.4-5.8c-3.6-1.2-7.1-1.4-7.1-1.4l0.4-8.9c0.8,0,20.1,1.2,21.8,15L393.7,302.2z"/>
							<path d="M402.5,302.2l-8.8-1.1c1.7-13.8,21.1-14.9,21.9-15l0.4,8.9l-0.2-4.4l0.2,4.4C415.9,294.9,403.2,295.9,402.5,302.2z"
								/>
							<path d="M393.7,322.1c-0.5-6.4-7.2-7-7.5-7l0.7-8.8c5,0.4,14.7,4,15.7,15.2L393.7,322.1z"/>
							<path d="M402.5,322.1l-8.8-0.7c0.9-11.1,10.6-14.8,15.6-15.2l0.7,8.8l-0.3-4.4l0.4,4.4C408.8,315.2,403,316,402.5,322.1z"/>
							<g>
								<g>
									<path class="st4" d="M424.9,260.5"/>
								</g>
							</g>
							<g>
								<g>
									<path class="st4" d="M404.3,280.9"/>
								</g>
							</g>
							<path d="M324.7,361.8c0,0,28.6-9.8,78.8-9.6c44.3,0.2,74.6,9.5,74.6,9.5L324.7,361.8z"/>
							<path d="M398.2,279.5c0,0-0.7-11.2-14.8-19c-6.1-3.4-12.1-3.2-12.1-3.2s1.9,12.1,11,15.2c6.5,2.2,11.4-0.3,11.4-0.3"/>
							<path d="M393.7,279.8c0-0.1-0.1-1.1-0.7-2.7c-2.6,0.8-7,1.4-12.3-0.4c-11.5-3.9-13.8-18.1-13.9-18.7l-0.8-4.9l5-0.2
								c0.3,0,7.3-0.2,14.4,3.7c16.1,8.9,17,22.1,17.1,22.6L393.7,279.8L393.7,279.8z M377.8,262.9c1.2,2.3,3.1,4.5,5.8,5.4
								c1.5,0.5,2.8,0.7,4,0.7c-1.6-1.6-3.7-3.2-6.4-4.6C380.1,263.8,378.9,263.3,377.8,262.9z"/>
							<path d="M397.8,278.1c0,0,5.1-9.9,12.4-16.3c7.2-6.6,16.1-5.5,16.1-5.5s-0.9,7.1-6.2,11.7c-8.1,7.7-18.1,4-18.1,4"/>
							<path d="M401.7,280.1l-7.9-4c0.2-0.4,5.5-10.7,13.5-17.6c8.6-7.8,19.1-6.6,19.6-6.5l4.4,0.6l-0.6,4.4c0,0.4-1.2,8.8-7.6,14.4
								c-7.1,6.5-15.2,6.3-19.6,5.6C402.4,278.8,401.8,280.1,401.7,280.1z M419.9,261.4c-2.1,0.6-4.5,1.7-6.7,3.7l-0.1,0.1
								c-1.1,1-2.2,2-3.2,3.1c2.3-0.3,4.8-1.3,7.2-3.5l0.1-0.1C418.4,263.8,419.2,262.6,419.9,261.4z"/>
							<path d="M372.3,285c-1.9-2.9-4.6-7.7-13.2-10.4c-6.7-2.1-16.9,1.8-16.9,1.8s2.9,8.1,12.5,10.8
								C362.7,289.6,372.3,285,372.3,285z"/>
							<path d="M359.7,292.3c-2,0-4.1-0.2-6.1-0.8c-11.6-3.4-15.3-13.2-15.4-13.6l-1.4-4.1l4-1.6c1.2-0.5,11.8-4.4,19.8-1.9
								c9.7,3,13.2,8.5,15.3,11.8l3.1,4.7l-4.6,2.2C373.9,289.2,367.1,292.3,359.7,292.3z M349.3,279c1.5,1.5,3.7,3.1,6.7,4
								c2.8,0.8,6.2,0.5,9.1-0.2c-1.6-1.5-3.8-2.9-7.2-4C355.5,278.1,352.1,278.4,349.3,279z"/>
							<path d="M452.6,278.1c-2.9-1.3-7.5-3.8-15.5-1.6c-6.3,1.7-12.3,9.8-12.3,9.8s7.9,4.4,16.9,1.8
								C449,285.9,452.6,278.1,452.6,278.1z"/>
							<path d="M435.8,293.3c-7.3,0-12.9-3-13.2-3.2l-4.4-2.4l3-4.1c0.7-1,7.1-9.5,14.8-11.5c9.2-2.5,14.8,0.1,18.1,1.7l4.5,2.1
								l-1.9,4c-0.2,0.4-4.6,9.7-13.8,12.4C440.4,293,438,293.3,435.8,293.3z M432.7,284.2c2.2,0.4,4.9,0.4,7.7-0.4
								c2.2-0.7,4-2.1,5.4-3.5c-2-0.4-4.4-0.4-7.5,0.5C436.5,281.2,434.5,282.6,432.7,284.2z"/>
							<path d="M471.4,302.1c-1.8-1.8-4.6-4.9-11.3-5.5c-5.2-0.5-12,4-12,4s4.8,5.5,12.2,6C466.5,307.1,471.4,302.1,471.4,302.1z"/>
							<path d="M461,311.1c-0.4,0-0.7,0-1.1,0c-9.2-0.6-15.1-7.3-15.3-7.6l-3.3-3.8l4.2-2.8c0.8-0.5,8.3-5.3,14.9-4.7
								c8,0.7,11.7,4.5,13.7,6.5l3.4,3.4l-3.1,3.2C473.9,305.9,468.5,311.1,461,311.1z M456.9,301.4c1.1,0.4,2.3,0.8,3.7,0.8
								c1,0.1,2-0.1,2.9-0.4c-1-0.4-2.3-0.7-3.8-0.8C458.8,300.9,457.9,301.1,456.9,301.4z"/>
							<path d="M398.6,228.2c-2.1,2.3-5.9,5.8-6.1,13.9c-0.2,7.8,5.9,14.3,5.9,14.3s5.8-4.9,6.2-14.9
								C404.9,233.6,398.6,228.2,398.6,228.2z"/>
							<path d="M398,262.5l-2.9-3.1c-0.3-0.3-7.4-8-7.1-17.5c0.3-9.3,4.6-13.9,6.9-16.3c0.1-0.2,0.3-0.3,0.4-0.5l2.9-3.2l3.3,2.8
								c0.3,0.3,7.9,6.9,7.5,16.9c-0.5,11.9-7.5,17.9-7.8,18.1L398,262.5z M398.6,235.3c-0.9,1.7-1.6,3.8-1.7,6.9
								c-0.1,2.3,0.7,4.5,1.6,6.4c0.8-1.8,1.5-4.3,1.7-7.3C400.2,239,399.5,237,398.6,235.3z"/>
							<path d="M441.4,266.7c-2.6,0-4.4-0.5-4.8-0.6l-4.9-1.3l1.9-4.7c3.1-7.4,7.6-10.2,8.5-10.7c6.1-3.4,10.7-2.5,13.1-2l4.7,0.9
								l-0.8,4.4c-0.2,0.8-1.6,7.8-7.7,11.4C447.8,266.2,444.2,266.7,441.4,266.7z"/>
							<path d="M352.8,265.4c-1.9,0-4.1-0.3-6.2-1.3c-7.2-3.2-9.9-10.1-10.2-10.8l-1.8-4.7l4.9-1.1c7.8-1.8,12.7,0.3,13.6,0.7
								c6.3,3,8.2,7.2,9.3,9.5l2,4.3l-4,1.9C359.9,264,356.8,265.4,352.8,265.4z"/>
							<path d="M418.1,248.8c-0.2,0-0.4,0-0.4,0l-5-0.3l0.9-5c0.2-1,1.2-6,4.4-8.7c3.8-3.3,7.3-3.3,8.9-3.4l4.7-0.1l0.1,4.4
								c0,0.6,0,5.9-3.9,9.3C424.1,248.5,419.6,248.8,418.1,248.8z"/>
							<path d="M382.4,247.9l-4.4-0.6c-0.5-0.1-5.3-0.8-8-4.9c-2.9-4.4-1.9-9.2-1.8-9.7l1.1-4.9l4.8,1.7c0.9,0.3,5.2,2,7.2,5.2
								c2.4,3.9,2,7.1,1.8,8.6L382.4,247.9z"/>
							<path d="M357.6,319.1c2.5,0.5,7,1.1,12.4-1.7c5.5-2.8,7.7-10,7.7-10s-7-1.9-13.4,1.8C358.9,312.3,357.6,319.1,357.6,319.1z"
								/>
							<path d="M361.6,323.9c-2.2,0-3.9-0.3-4.8-0.5l-4.4-0.8l0.9-4.4c0.2-0.9,1.9-8.9,8.8-12.8c7.9-4.6,16.5-2.3,16.8-2.2l4.4,1.2
								l-1.4,4.4c-0.3,0.9-3,9-9.9,12.6C368,323.4,364.4,323.9,361.6,323.9z M370.2,311.7c-1.2,0.2-2.5,0.7-3.7,1.4
								c-0.8,0.4-1.4,1-2,1.7c1.1-0.2,2.2-0.6,3.4-1.3C368.8,313,369.6,312.4,370.2,311.7z"/>
							<path d="M327.9,302.6c2,1.7,5.1,4.7,12,4.9c5.4,0.1,12.1-5,12.1-5s-5.3-5.3-13-5.3C332.5,297.2,327.9,302.6,327.9,302.6z"/>
							<path d="M340,311.9c-0.1,0-0.2,0-0.3,0c-8.2-0.2-12.3-3.8-14.5-5.7l-3.7-3.2l2.9-3.4c0.6-0.7,6.2-6.9,14.4-6.9l0,0
								c9.4,0,15.8,6.4,16.1,6.6l3.6,3.6l-4,3.1C353.8,306.6,346.7,311.9,340,311.9z M335.6,302.3c1.2,0.4,2.6,0.6,4.3,0.7
								c1,0,2.1-0.3,3.2-0.7c-1.3-0.4-2.7-0.7-4.2-0.7l0,0C337.8,301.6,336.6,301.9,335.6,302.3z"/>
							<path d="M419.3,307.8c1.4,2.1,5.2,6.3,9.4,7.5c5.4,1.5,13-1.4,13-1.4s-3.1-6.5-9.7-8.2C424.7,303.8,419.3,307.8,419.3,307.8z
								"/>
							<path d="M432.3,320.2c-1.6,0-3.2-0.2-4.8-0.6c-6.8-1.9-11.4-8.5-11.9-9.3l-2.3-3.5l3.4-2.5c0.3-0.2,7.2-5.3,16.5-2.9
								c8.5,2.2,12.4,10.2,12.6,10.6l2.1,4.3l-4.5,1.7C442.7,318.3,437.6,320.2,432.3,320.2z M427.2,309.7c0.9,0.6,1.8,1.1,2.7,1.4
								c1,0.3,2.4,0.3,3.7,0.2c-0.8-0.5-1.7-1-2.7-1.3C429.6,309.7,428.4,309.6,427.2,309.7z"/>
						</g>
					</g>
				</g>
				<path d="M577.6,417.1"/>
				<path d="M101,403.7c0,0-22.7-9.7-23.1-32c-0.4-22.4-3.4,27.6-3.4,27.6L101,403.7z"/>
				<path d="M554.7,401.4c0,0,19.8-7.4,20.2-29.7c0.4-22.4,7.1,26.1,7.1,26.1L554.7,401.4z"/>
			</g>
		</g>
		<g>
			<g>
				<g>
					<path d="M345.9,477.6c-0.1-0.7-0.2-1.3-0.3-2c-1.8-7.7-9.2-12.7-17-11.4c-2.3-7.4-9.9-11.8-17.5-10.1c-1.1,0.2-2.1,0.6-3.1,1.1
						c-2.6-6.8-9.9-10.9-17.2-9.2c-3.8,0.9-6.9,3.1-8.9,6.1c-3.3-5-9.5-7.7-15.7-6.3c-5.8,1.3-10,5.8-11.2,11.2
						c-3.3-2.1-7.3-3-11.4-2c-8,1.8-13,9.8-11.2,17.8c1.5,6.5,7.1,11.1,13.4,11.6c-0.3,1.8-0.2,3.6,0.2,5.4
						c1.8,8,9.7,13.2,17.7,11.3c1.3-0.3,2.6-0.9,3.7-1.5c-0.1,1.3-0.4,9.7,7.8,13.6c3.8,1.8,9,1.2,12.8-0.8c2.3,6.6,8.7,9.8,14,9.5
						c8-0.5,10.7-4.8,12.7-8.6c3.5,3,8.2,4.3,13,3.2c5.8-1.3,10-5.9,11.2-11.3c3.2,2.1,7.3,2.9,11.3,2c8-1.8,13-9.8,11.2-17.8
						C359.8,481.9,353.1,477.1,345.9,477.6z"/>
					<g>
						<g>
							<path class="st1" d="M301.9,523c-5.3,0.3-11.7-2.7-14.5-9c-4.2,1.8-9.1,1.9-12.7,0.2c-6.7-3.1-8.2-9.2-8.5-12.7
								c-0.7,0.3-1.4,0.5-2.1,0.7c-4.2,1-8.5,0.2-12.2-2.1c-3.7-2.3-6.2-5.9-7.1-10.1c-0.3-1.5-0.5-3.1-0.4-4.6
								c-6.5-1-11.8-5.8-13.3-12.4c-2-8.7,3.5-17.4,12.2-19.3c3.7-0.8,7.5-0.4,10.9,1.4c1.8-5.2,6.2-9.3,11.7-10.5
								c6-1.4,12.2,0.8,16,5.5c2.2-2.6,5.3-4.4,8.6-5.2c7.4-1.7,15,2.1,18.2,8.8c0.7-0.3,1.4-0.5,2.1-0.6c7.8-1.8,15.8,2.6,18.7,10
								c8-0.8,15.5,4.5,17.4,12.5c0.1,0.3,0.1,0.6,0.2,1c7.4,0,14,5.3,15.7,12.6c2,8.7-3.5,17.4-12.2,19.3
								c-3.7,0.8-7.5,0.4-10.8-1.3c-1.8,5.3-6.2,9.4-11.8,10.7c-4.5,1-9.2,0.1-12.9-2.5c-2.3,4-5.7,7.5-13,7.9
								C302.1,522.9,302,523,301.9,523z M288.8,510.4l0.5,1.4c2.1,6,7.8,8.9,12.5,8.6h0.1c7.2-0.5,9.7-4.2,11.6-7.9l0.7-1.4l1.2,1.1
								c3.3,2.8,7.6,3.9,11.9,3c5.1-1.2,9.2-5.2,10.3-10.4l0.4-1.8l1.5,1c3.1,2,6.8,2.6,10.3,1.8c7.3-1.7,11.9-9,10.3-16.3
								c-1.5-6.5-7.6-11.1-14.2-10.6l-1.2,0.1l-0.1-1.2c-0.1-0.6-0.2-1.2-0.3-1.8c-1.6-7-8.4-11.6-15.5-10.4l-1.1,0.2l-0.3-1.1
								c-2.1-6.8-9.1-10.8-16-9.2c-1,0.2-1.9,0.6-2.8,1l-1.2,0.6l-0.5-1.3c-2.4-6.3-9.2-9.9-15.7-8.4c-3.3,0.8-6.2,2.7-8.2,5.5
								l-1.1,1.5l-1-1.6c-3.1-4.7-8.9-7-14.4-5.8c-5.1,1.1-9.1,5.2-10.3,10.2l-0.4,1.8l-1.5-1c-3.1-2-6.8-2.7-10.4-1.9
								c-7.3,1.7-11.9,9-10.3,16.3c1.3,5.9,6.3,10.1,12.3,10.6l1.4,0.1l1.8,0.7c-0.8,1.6-1,5.3-0.7,7.1c0.4,2.6,1.5,5.7,5,8.3
								c2.3,1.7,5.9,2.8,9.4,2c1.2-0.3,3.4-1.8,4.4-2.5l1.7-1.3l-0.1,2.2c-0.1,2.7,0.4,9.2,7.1,12.4c3.2,1.5,8,1.2,11.7-0.8
								L288.8,510.4z"/>
						</g>
					</g>
				</g>
				<g>
					<path d="M329.2,463.5c4.5,13.9-11.1,25.2-22,16.9c-1.1-0.8-4.3-3.1-5.3-6.7"/>
					<g>
						<g>
							<path class="st1" d="M316.7,485.8c-3.6,0.2-7.2-0.9-10.3-3.2c0,0-4.7-3.4-5-9.6h0.2c0.8,4.3,4.3,6.9,7.8,8.1
								c0,0,7,3.2,13.5-1.3c3.6-2.5,6.5-8.8,4.3-15.6l3.9-1.2c2.4,7.3,0.3,15.6-5.9,20C322.6,484.7,319.7,485.6,316.7,485.8z"/>
						</g>
					</g>
				</g>
				<g>
					<path d="M282.6,470.1c-3.8,7.1-14.2,9.8-21.5,4"/>
					<g>
						<g>
							<path class="st1" d="M271,479.3c-4,0.2-8-1-11.2-3.6l2.5-3.2c2.9,2.3,6.7,3.2,10.3,2.4c3.5-0.7,6.5-2.9,8-5.8l3.6,1.9
								c-2.1,4-6.1,6.9-10.8,7.9C272.7,479.1,271.9,479.2,271,479.3z"/>
						</g>
					</g>
				</g>
				<g>
					<path d="M260.9,467.9c0,0,3.9,15.7-14.4,17.2"/>
					<g>
						<g>
							<path class="st1" d="M246.6,487l-0.3-4.1c5.2-0.4,8.8-2.1,10.9-4.9c2.9-3.8,4.2-9.6,0.7-16c0,0,2.4,2.4,3.6,5.1
								c0.8,1.8,3.1,7.8-1,13.2C257.7,484.3,253,486.5,246.6,487z"/>
						</g>
					</g>
				</g>
				<g>
					<path d="M274.4,484.9c0,0,1.4,17.8-14.4,17.2"/>
					<g>
						<g>
							<path class="st1" d="M259.8,504.8l0.2-3.5c6,0.1,9.1-2.5,11.1-5.5c3.2-5,1.3-10.3,1.3-10.4c0,0-0.6-1.9-1.6-3.3
								c1.1,0.8,7.7,7.8,3.2,15.6C271.2,502.1,266.2,504.3,259.8,504.8z"/>
						</g>
					</g>
				</g>
				<g>
					<g>
						<path class="st1" d="M333,493.4c-0.5-2.3-2.2-6.7,2.2-12.6c2.9-3.8,6.2-5.6,12.6-6.1l0.3,4.1c-5.2,0.4-8.8,2.1-10.9,4.9
							c-1.8,2.5-2.4,5.5-2.5,7.5c0,1.7,0.3,5.8,1.9,9.4C334.4,497.9,333,493.4,333,493.4z"/>
					</g>
				</g>
				<g>
					<g>
						<path class="st1" d="M289.9,514.3l-2-3.4c5.5-3.5,6.3-8.3,6.2-11c-0.2-4.8-2.9-9.7-8.5-12.3v-0.1c6.5,0.7,10.7,5.8,11.5,11.7
							C297.9,505.3,295.3,510.8,289.9,514.3z"/>
					</g>
				</g>
				<g>
					<g>
						<path class="st1" d="M313.5,515.8c-0.3-0.2-7.6-5-5.6-15.9l0.2-1c1.4-4.8,5.2-9.5,13.6-10c1.7,0,5.2,0.2,7.8,1.9
							c-1.3-0.5-4.3-0.5-4.3-0.5c-10.7,0.4-12.8,7.9-13.2,9.4c-1.5,8.6,3.8,12.8,3.9,12.9L313.5,515.8z"/>
					</g>
				</g>
				<g>
					<path d="M306.2,468c-6.9,12.4-26.3,9.4-27.2-5.6c-0.1-1.4-0.6-5.2,3-10.3"/>
					<g>
						<g>
							<path class="st1" d="M295,476.6c-1.6,0.1-4.1,0.3-5.7,0c-7.3-1.7-11.9-6.5-12.3-14v-0.2c-0.1-1.8-0.4-6,3.3-11.3l3.3,2.3
								c-2.9,4.2-2.7,7.2-2.6,8.7v0.3c0.4,6.9,5.2,10.4,9.6,11.4s10.7,0,14.1-6.1l0.3-0.4C303.1,473.2,300.2,475.4,295,476.6z"/>
						</g>
					</g>
				</g>
				<path d="M296,463.2c0,0-8.7,2.1-9.5,1.9c-0.7-0.1-3-2.9-3-2.9l-0.1-4.8l4.3-2.5L296,463.2z"/>
				<g>
					<g>
						<path class="st1" d="M309.2,498.5c-6.1-6.1-14-1.6-14.4-0.7l-1.6-4c2.1-2.4,11.8-5,18.7,1.1L309.2,498.5z"/>
					</g>
				</g>
			</g>
			<path d="M398,467.7l-3.2-2.5l-3.2-2.5c0,0,3.7-5,4.8-14.7v-0.1c1.3-10.3-1.7-14.6-1.7-14.6c0,0.1,0.1,0.1,0.1,0.1l6.3-5.1
				c0.5,0.7,5.2,6.8,3.4,20.7C403.1,461.1,398.2,467.4,398,467.7z"/>
			<path d="M418.4,449.6l-7.4-3.4l3.7,1.7l-3.7-1.7c0-0.1,2.4-5.4-0.5-9.2c-2.7-2.9-4.3-3.3-6.6-3.8l1.5-8c3.4,0.6,6.9,1.6,11.2,6.4
				l0.2,0.2C423,439.6,418.6,449.2,418.4,449.6z"/>
			<path d="M393.7,415.7c-1.6,0-3.7-0.2-5.3-1.3c-5.4-3.4-4.9-10.5-4.9-11.2l8.1,0.7l-4.1-0.3l4.1,0.3c-0.1,1,0.2,3,1,3.7
				c0.4,0.1,1.5,0.1,2.1-0.1l1.6,8C395.8,415.5,394.9,415.7,393.7,415.7z"/>
			<path d="M393.2,413.5c-0.5-0.1-3.2-0.8-5.4-3.8c-4.2-5.8-0.1-12.5,2.6-15.2l5.7,5.8l-2.9-2.9l2.9,2.9c0,0-2.9,3.1-1.8,4.7
				c0.4,0.5,0.7,0.7,0.7,0.7s-0.1,0-0.3-0.1L393.2,413.5z"/>
			<path d="M390.8,406.8c-0.9-1.8-0.9-3.7-0.1-5.4c2-4.1,8.1-5.6,15.9-7.2c1.1-0.2,2.2-0.4,2.7-0.6l2.2,7.8
				c-0.8,0.2-1.9,0.4-3.3,0.7c-2.2,0.4-9.1,1.8-10.4,3.1c0.4-0.3,0.6-1.4,0.3-2.2L390.8,406.8z"/>
			<path d="M424.1,438c-1.3-3.8-7.4-8.3-12.1-7.8l-0.8-8.1c8.8-0.9,18.1,6.3,20.6,13.2L424.1,438z"/>
			<g>
				<g>
					<path class="st5" d="M392.1,430.7"/>
				</g>
			</g>
			<g>
				<g>
					<path class="st5" d="M392.1,430.7"/>
				</g>
			</g>
			<path d="M315.4,456.2c-0.2-0.1-15.7-12.2-33.4-15.4c-21-3.7-42.8,11.7-43,11.9l-4.7-6.6c1-0.7,24.8-17.6,49.2-13.3
				c19.8,3.5,36.3,16.4,37,17L315.4,456.2z"/>
			<path d="M328.7,449.7c-2.3-1.7-4.5-3.5-6.7-5.4c-5.9-5.1-12.5-10.8-25.9-15.3c-18.9-6.3-42.6-2.9-56.6,3l-3.2-7.5
				c15.9-6.7,41.3-10.3,62.3-3.3c14.9,5,22.5,11.6,28.6,16.9c2.1,1.8,4,3.5,6.1,4.9L328.7,449.7z"/>
			<path d="M329.2,457l-5.3-6.2l16.4-13.9c-11.4-8.3-44.7-30.9-65.1-28l-1.1-8.1c28.2-3.9,73.3,31.2,75.2,32.7l3.9,3.1L329.2,457z"
				/>
			<path d="M390.5,466.2l-6.8-4.5c0,0,0,0-0.1,0.1c0,0,2.1-3.7,1.2-11.9c-0.7-6.6-2.7-10-5.2-14.3c-0.9-1.6-1.8-3.2-2.8-5.1l7.3-3.6
				c0.8,1.7,1.7,3.2,2.5,4.7c2.6,4.5,5.2,9.2,6.2,17.4C394.1,460.2,390.8,465.6,390.5,466.2z"/>
			<g>
				<g>
					<path class="st6" d="M257.7,431"/>
				</g>
			</g>
			<path d="M328.3,450.9c0.7-0.3,5-7.5,5-7.5l-35.1-18l-46.3-4.5l3.4-9.1c0,0,18.5-12.4,37-15.7c13.8-2.5,27.2-0.3,36.6,5.1
				c0.4,0.2,59.4,30.3,55.2,29.4c-0.7-0.2,7.8,15.7,0.9,32.7C382.2,467.2,328.3,450.9,328.3,450.9z"/>
			<path d="M399.8,460.7c0,0,11.8-0.7,20.7-11.9c1.9-2.3,6.2-10,4.9-14.1c-1.4-4.4-9.8-8.3-12.8-9.1c-2.5-0.6-5,7.9-5,7.9
				s-5.2-2.7-6-1.2C407.5,440.7,401.8,457.1,399.8,460.7z"/>
			<path d="M412.8,417.8c0,0-1.6-8.7-2.2-13.6c-0.7-5.1-3.4-9.8-3.4-9.8s10.9,7.4,13.6,10.3c6.4,6.9,10.4,33.3,9.2,30.4
				C426.5,427.2,424.6,418,412.8,417.8z"/>
			<path d="M390.6,469.7c-3.3,0.1-6.3-0.2-8.3-0.5c-14.5,0.3-41.4-10-51.1-13.9c-0.8,1.6-1.6,3.3-2.2,4.5l-1.7,3.6l-3.6-1.6
				c-1.2-0.5-2.4-1.1-3.6-1.6c-11-4.9-20.5-9.1-33.9-10.8c-6.4-0.8-16.3,1.4-29.5,6.5c-10.4,4-18.9,7.3-19,7.4l-4.4,1.7l-1-4.6
				c-1.7-7.8-2.3-16.4-2.3-16.7l-0.1-2.1l1.7-1.3c0.2-0.1,1.3-1,3.9-2.7c-0.6-3.9-0.5-8.7-0.5-10l0.1-2.4l2.1-1.1
				c0.3-0.1,5.8-2.9,11-4.9l0.9-11l2.9-0.7c0.3-0.1,4.6-1.1,10.3-2.2l3.1-2.8c9.3-8.4,23.5-14,36.3-14.2c17.3-0.7,30.8,6.2,36.5,9.2
				l0.3,0.2c16.4,9.5,43.9,25.2,44.2,25.3l0.2,0.1c1.4,0.8,5.7,3,8.9,3.1h0.4l0.4,0.1c4.8,1.2,5.9,0.6,7,0.1
				c0.6-0.3,1.3-0.6,2.2-0.9c1-1.8,2.5-4.4,5.5-5.4c0.2-3,1-5.8,2-8c-1.7-1.8-2.7-4-3.2-5.7c-1.5-0.5-3.7-1-5-0.5L401,406
				c-0.6,0.2-1.2,0.7-1.7,1.2c0,0.7-0.1,1.4-0.1,1.7c0.3,2.3,1.5,4.3,1.5,4.4l2.2,3.8l-3.9,2c-0.8,0.4-5,2.3-8.9,0.5
				c-3.4-1.2-6.8-4.7-6.9-11c-1.4-4.8-0.3-7.9,1-9.8c0.7-1.1,1.5-1.8,2.3-2.3c1.7-3.2,5.7-7.3,12.4-7.2c3.4-1.3,9.9-1.9,15.6,2.4
				c7.7,2,12.7,9.4,14.5,14.5c4,4.1,4.9,10.3,5.2,14.8c1.9,7,1.1,17.5-3.6,23.5c-2,6-10.1,19.8-24.4,22.7
				C400.9,468.9,395.3,469.6,390.6,469.7z M382.9,461.1l0.4,0.1c3.6,0.6,12.5,1.1,20.1-1.9l0.4-0.1l0.4-0.1
				c11.5-2.2,17.9-14.4,18.7-17.7l0.2-1l0.7-0.8c2.9-3.2,4-11.4,2.4-17l-0.1-0.5v-0.5c-0.1-2-0.4-8-3.3-10.4l-1-0.8l-0.3-1.1
				l-3.4,3.9c-0.8,0.9-3.2,5.3-2.5,9.9l0.9,5.6l-5.6-1c-0.6-0.1-0.8-0.1-0.9-0.1c-0.3,0.3-0.8,1.3-1.1,1.9c-0.3,0.5-0.5,1.1-0.9,1.6
				l-1.3,2.3l-2.6-0.2c-0.2,0-0.2,0-0.8,0.3c-2.5,1.2-5.4,2.2-12.2,0.6c-5.5-0.4-11.2-3.6-12.2-4.2c-2-1.1-29.1-15.7-44.4-25.5
				c-5.7-2.9-17.2-8.8-32.3-8.2h-0.1c-6.5,0.1-15.2,2.2-23,6.4c1.2,0.4,1.9,0.9,2.5,1.8l3.5,5.4l-6.4,0.8c-7.7,0.9-17.1,2.9-21.8,4
				l-0.9,10.5l-2.6,0.8c-3.3,1.1-7.6,3-10.1,4.2c0,3.4,0.3,6.7,0.7,7.6l1.5,3.3l-3.1,1.8c-1.7,1-3,1.8-3.8,2.4
				c0.2,2,0.5,5.2,1.1,8.6c3.5-1.3,8.6-3.3,14.4-5.6c9.3-3.6,23-8.3,33.4-7c14.6,1.8,25.1,6.5,36.2,11.4c1.1-2.3,2.1-4.4,2.2-4.5
				l1.7-3.5l3.6,1.5c0.4,0.2,35.6,15.1,51.3,14.7c0.1,0,0.2,0,0.3,0L382.9,461.1z M415.3,406.4l5.1,0.4c-1.6-3.3-4.9-7-8.6-7.7
				l-1.1-0.2l-0.8-0.7c-3.4-2.9-7.5-1.9-8.2-1.6l-1.1,0.7l-1.3-0.1c-4.1-0.3-5.6,2.6-5.9,3.3l-0.4,1.3c1-1.1,2.8-2.7,5.1-3.6
				c4.4-1.8,9.3-0.3,11.8,0.8c1.3,0.5,2.8,1.2,3.5,2.9l0.2,0.4l0.1,0.4C413.9,404.3,414.8,406.1,415.3,406.4z M391.1,402.9
				c-0.5,0.4-0.5,1.8,0.1,3.5v0.1c0.1-0.8,0.1-1.4,0.1-1.6l0.1-1.2l0.7-0.9L391.1,402.9z M401.7,396.6L401.7,396.6L401.7,396.6z"/>
			<path d="M236.5,456.8c-4.1-11.5-0.5-12.9-0.5-12.9s-0.7-4,0.7-5.1c19.3-10.1,42.6-10.9,58.1-6.5c18.2,5.2,35.9,18.5,35.9,18.5
				s-6.3,2.8-6.7,2.8c-3.5,0-26.6-7.1-32.9-7.4c-2.4-0.1-20-2.4-38.8,3.4C242.6,453.3,236.7,457.2,236.5,456.8z"/>
			<g>
				<g>
					<path class="st1" d="M227.4,471.8l-3-4.1c9.2-6.6,32.7-17,51.3-18.4c22.6-1.8,44.2,5.3,55.9,12l-2.5,4.4
						c-8.9-5.1-30-13.1-53-11.3C258.4,455.7,236.1,465.6,227.4,471.8z"/>
				</g>
			</g>
			<path d="M268.3,407.8"/>
			<g>
				<g>
					<path class="st1" d="M240.8,431.4l-11.1,4.4c0,0-5.2,9.6,0.1,5.9c6.4-3.8,19.5-8.1,19.5-8.1l-3.4-3.9L240.8,431.4z"/>
				</g>
			</g>
		</g>
	</g>
	<g>
		<path d="M840,235.9h51v159.4c0,79.5-40.1,116.5-104.4,116.5c-39,0-72.9-21.8-88.5-55.7l42.5-18.3c7.8,16.8,26.5,28.4,46,28.4
			c32.7,0,53.4-18.3,53.4-65.5v-5.1c-13.2,17.9-38.2,26.9-58.4,26.9c-46.8,0-89.2-37.4-89.2-95.9s42.5-95.5,89.2-95.5
			c20.7,0,45.2,8.6,58.4,26.5V235.9z M838.4,326.7c0-28.1-23.4-47.9-47.1-47.9c-25.7,0-47.1,21-47.1,47.9
			c0,26.5,21.4,48.3,47.1,48.3C816.2,375,838.4,354.4,838.4,326.7z"/>
	</g>
	<g>
		<path d="M931.2,327.1c0-57.7,46-95.9,97.8-95.9c51.8,0,97.8,38.2,97.8,95.9c0,57.3-46,95.5-97.8,95.5
			C977.2,422.6,931.2,384.4,931.2,327.1z M1075,327.1c0-28.4-20.7-48.3-46-48.3c-25.3,0-46,19.9-46,48.3c0,28.1,20.7,47.9,46,47.9
			C1054.3,375,1075,355.1,1075,327.1z"/>
	</g>
	<g>
		<path d="M1365.6,326.7c0,58.4-42.5,95.9-89.2,95.9c-20.7,0-45.6-8.6-58.4-27.3v22.6h-51v-281h51v120.8
			c12.9-18.3,37.8-26.5,58.4-26.5C1323.2,231.2,1365.6,268.2,1365.6,326.7z M1313.4,326.7c0-26.9-21-47.9-46.8-47.9
			c-23.8,0-47.1,19.9-47.1,47.9c0,27.7,22.2,48.3,47.1,48.3C1292.4,375,1313.4,353.2,1313.4,326.7z"/>
	</g>
	<g>
		<path d="M1397.2,389.8c0-17.9,14.8-31.2,32.3-31.2c17.9,0,33.1,13.2,33.1,31.2c0,18.3-15.2,31.6-33.1,31.6
			C1412,421.4,1397.2,408.1,1397.2,389.8z"/>
	</g>
	<g>
		<path d="M1705.8,326.7c0,58.8-42.5,95.9-89.2,95.9c-20.7,0-45.6-8.6-58.4-27.3v111.8h-51V235.9h51v22.2
			c12.9-18.3,37.8-26.9,58.4-26.9C1663.3,231.2,1705.8,268.6,1705.8,326.7z M1653.6,327.1c0-26.9-21-48.3-46.8-48.3
			c-24.9,0-47.1,20.7-47.1,48.3c0,27.7,23.4,47.9,47.1,47.9C1632.5,375,1653.6,354,1653.6,327.1z"/>
	</g>
	<g>
		<path d="M1925.6,343.5h-136.8c5.5,21.4,22.6,33.9,46.8,33.9c18.7,0,36.6-8.6,47.9-21.4l29.6,30c-17.1,23-48.7,36.6-80.7,36.6
			c-56.1,0-97-39.4-97-95.5c0-58.8,44.8-95.9,96.6-95.9c52.2,0,94.7,37,94.7,92.7C1926.7,329,1926.3,335.3,1925.6,343.5z
			 M1875.3,310.3c-1.6-21.4-19.1-35.1-42.1-35.1c-21,0-39,10.5-44.4,35.1H1875.3z"/>
	</g>
</g>
</svg>
